<svg width="71" height="71" viewBox="0 0 71 71" fill="none" xmlns="http://www.w3.org/2000/svg">
<mask id="mask0_37_3128" style="mask-type:alpha" maskUnits="userSpaceOnUse" x="0" y="0" width="71" height="71">
<g clip-path="url(#clip0_37_3128)">
<g clip-path="url(#clip1_37_3128)">
<path d="M17.9914 32.8351C18.6062 28.1739 22.7266 23.9547 30.2637 20.2781L31.6209 19.6159L26.0566 9.3429L24.8004 9.97959C8.86186 18.059 0.780273 29.4771 0.780273 43.917C0.780273 48.8993 2.36184 53.2024 5.48135 56.7071C8.64461 60.2605 12.4834 62.0623 16.8919 62.0623C20.853 62.0623 24.212 60.6518 26.8752 57.8694C29.5212 55.105 30.8628 51.6713 30.8628 47.6635C30.8628 43.8764 29.5076 40.5014 26.8349 37.6322C24.4776 35.1014 21.5072 33.4915 17.9914 32.8351ZM24.784 55.8677C22.6586 58.0882 20.077 59.1674 16.8919 59.1674C13.2955 59.1674 10.2705 57.733 7.64396 54.7822C4.9733 51.782 3.67502 48.228 3.67502 43.9169C3.67502 37.2987 5.53863 31.3237 9.21377 26.1581C12.7205 21.2295 17.98 16.8781 24.8599 13.2108L27.6474 18.3572C19.2638 22.7505 15.0161 28.0317 15.0161 34.0694V35.3623L16.3006 35.5077C19.7607 35.8994 22.5132 37.2397 24.7167 39.6052C26.9044 41.9537 27.9679 44.5898 27.9679 47.6634C27.968 50.9457 26.9264 53.6292 24.784 55.8677Z" fill="#FFA819"/>
<path d="M57.2733 32.8394C57.8807 28.1743 61.9672 23.9529 69.4438 20.2759L70.7803 19.6187L65.3542 9.33826L64.0856 9.97837C48.0742 18.0574 39.9558 29.476 39.9558 43.917C39.9558 48.9025 41.5576 53.2079 44.7165 56.7135C47.9147 60.2626 51.7694 62.0622 56.1743 62.0622C60.1404 62.0622 63.4839 60.6489 66.1117 57.8615C68.717 55.0982 70.0382 51.6671 70.0382 47.6634C70.0382 43.8761 68.683 40.5011 66.0106 37.6321C63.658 35.1067 60.7235 33.4982 57.2733 32.8394ZM64.0057 55.8757C61.9171 58.0908 59.3556 59.1676 56.1743 59.1676C52.5744 59.1676 49.5299 57.7311 46.8669 54.7758C44.1641 51.7764 42.8504 48.2246 42.8504 43.917C42.8504 37.3 44.7225 31.3259 48.4139 26.1608C51.9362 21.2333 57.2185 16.8827 64.1275 13.2157L66.8395 18.3542C58.5163 22.749 54.299 28.0313 54.299 34.0696V35.3595L55.5802 35.5075C58.9691 35.8986 61.6879 37.239 63.8925 39.6053C66.0802 41.9537 67.1434 44.5895 67.1434 47.6635C67.1435 50.95 66.1171 53.6364 64.0057 55.8757Z" fill="#FFA819"/>
</g>
</g>
</mask>
<g mask="url(#mask0_37_3128)">
<rect x="0.780273" y="0.700195" width="70" height="70" fill="#FFA819"/>
</g>
<defs>
<clipPath id="clip0_37_3128">
<rect width="70" height="70" fill="white" transform="translate(0.780273 0.700195)"/>
</clipPath>
<clipPath id="clip1_37_3128">
<rect width="70" height="70" fill="white" transform="translate(0.780273 0.700195)"/>
</clipPath>
</defs>
</svg>
