<svg xmlns="http://www.w3.org/2000/svg"  viewBox="0 0 55 50">
  <g clip-path="url(#clip__catalog)">
    <path fill-rule="evenodd" clip-rule="evenodd" d="M49.878 10.8378L45.7381 19.0049C45.5417 19.3925 45.1492 19.6252 44.7331 19.6252C44.6257 19.6252 44.5167 19.6096 44.4091 19.5773L41.5095 18.7185L39.8095 18.215V19.988V22H38.1095V18.215V15.9385L40.2923 16.585L44.4366 17.8125L48.0945 10.5962L39.1794 6.48064C37.4233 5.88968 35.6379 5.41103 33.8358 5.04586C32.7206 8.8749 29.2136 11.6949 24.9998 11.6949C20.7863 11.6949 17.2791 8.87513 16.164 5.04584C14.3621 5.41099 12.5763 5.88966 10.817 6.48078L1.90679 10.5954L5.56355 17.812L9.70434 16.5847L11.8874 15.9377V18.2146V45.0482H37V46.7482H11.3191C10.6952 46.7482 10.1874 46.2406 10.1874 45.6183V19.9877V18.2146L8.48743 18.7185L5.59105 19.577C5.48344 19.6093 5.37432 19.6248 5.26671 19.6248C4.84983 19.6248 4.45578 19.3922 4.26206 19.0046L0.123677 10.8375C-0.0191191 10.562 -0.0373916 10.2468 0.0639531 9.9548C0.161914 9.66616 0.377462 9.42879 0.657979 9.29952L10.1873 4.89906C12.2182 4.21215 14.284 3.66956 16.3698 3.27298C16.4432 3.2586 16.5163 3.25166 16.5884 3.25166C17.1044 3.25166 17.566 3.60815 17.6824 4.13094C18.4439 7.48445 21.4125 9.99489 24.9998 9.99489C28.5873 9.99489 31.5558 7.48429 32.3175 4.13094C32.4325 3.60815 32.8949 3.25166 33.4113 3.25166C33.4833 3.25166 33.5564 3.2586 33.6299 3.27298C35.7158 3.66956 37.7816 4.21215 39.8094 4.89906L49.342 9.29969C49.6208 9.42895 49.8349 9.66633 49.9377 9.95497C50.0374 10.247 50.0174 10.5622 49.878 10.8378ZM16.023 4.50041L16.023 4.50041L16.0241 4.50517L16.023 4.50041Z" fill="#323232"></path>
    <path fill-rule="evenodd" clip-rule="evenodd" d="M28.5833 26.5V32.4286H34.5119V26.5H28.5833ZM28.0833 25C27.5311 25 27.0833 25.4477 27.0833 26V32.9286C27.0833 33.4809 27.531 33.9286 28.0833 33.9286H35.0119C35.5642 33.9286 36.0119 33.4809 36.0119 32.9286V26C36.0119 25.4477 35.5642 25 35.0119 25H28.0833Z" fill="#323232"></path>
    <path fill-rule="evenodd" clip-rule="evenodd" d="M28.5833 36.3214V42.25H34.5119V36.3214H28.5833ZM28.0833 34.8214C27.5311 34.8214 27.0833 35.2691 27.0833 35.8214V42.75C27.0833 43.3023 27.531 43.75 28.0833 43.75H35.0119C35.5642 43.75 36.0119 43.3023 36.0119 42.75V35.8214C36.0119 35.2691 35.5642 34.8214 35.0119 34.8214H28.0833Z" fill="#323232"></path>
    <path fill-rule="evenodd" clip-rule="evenodd" d="M38.4048 26.5V32.4286H44.3333V26.5H38.4048ZM37.9048 25C37.3525 25 36.9048 25.4477 36.9048 26V32.9286C36.9048 33.4809 37.3525 33.9286 37.9048 33.9286H44.8333C45.3856 33.9286 45.8333 33.4809 45.8333 32.9286V26C45.8333 25.4477 45.3856 25 44.8333 25H37.9048Z" fill="#323232"></path>
    <path fill-rule="evenodd" clip-rule="evenodd" d="M38.4048 36.3214V42.25H44.3333V36.3214H38.4048ZM37.9048 34.8214C37.3525 34.8214 36.9048 35.2691 36.9048 35.8214V42.75C36.9048 43.3023 37.3525 43.75 37.9048 43.75H44.8333C45.3856 43.75 45.8333 43.3023 45.8333 42.75V35.8214C45.8333 35.2691 45.3856 34.8214 44.8333 34.8214H37.9048Z" fill="#323232"></path>
  </g>
</svg>