<svg xmlns="http://www.w3.org/2000/svg" viewBox="0 0 47 44">
  <path d="M1.74554 43.8992C1.31009 43.8992 0.983507 43.6815 0.765783 43.246C0.54806 42.8106 0.656921 42.1574 1.09237 41.8308C1.09237 41.8308 5.12026 39.0004 6.53546 36.17C7.8418 33.6662 5.44684 30.2915 5.44684 30.2915L5.33798 30.1826C3.81391 27.3522 3.05188 24.0863 3.05188 20.9293C3.05188 17.1192 4.1405 13.309 6.31773 10.0432C8.38611 6.77731 11.4342 4.16463 15.0267 2.42284C17.9659 1.1165 21.3407 0.354469 24.6065 0.354469C24.6065 0.354469 24.6065 0.354469 24.7154 0.354469H25.9129C31.2471 0.681055 36.2547 2.74943 40.0649 6.34187C43.8751 9.93431 46.0523 14.7242 46.3789 19.7319V20.9293C46.3789 24.0863 45.6168 27.3522 44.0928 30.1826C42.2421 33.5573 39.5206 36.4966 36.1459 38.4561C32.6623 40.5245 28.7433 41.5042 24.7154 41.5042C21.5584 41.5042 18.4014 40.8511 15.4621 39.5447L2.07212 43.8992C1.96326 43.8992 1.8544 43.8992 1.74554 43.8992ZM7.29749 29.094C7.73294 29.6383 10.3456 33.6662 8.60383 37.1498C8.05952 38.2384 7.29749 39.2181 6.4266 40.1979L15.2444 37.3675C15.4621 37.2586 15.7887 37.2586 16.0064 37.4763C18.728 38.7827 21.6672 39.4359 24.7154 39.4359C28.3078 39.4359 31.9003 38.4561 34.9484 36.7143C37.9965 34.8637 40.5003 32.3598 42.1333 29.3117C43.4396 26.8079 44.2016 23.9775 44.2016 21.0382V19.8407C43.9839 15.3774 41.9155 11.1318 38.5408 7.97479C35.1661 4.70894 30.7028 2.74943 25.804 2.53171H24.6065C21.5584 2.53171 18.6191 3.18488 15.8976 4.49122C12.6317 6.01528 9.91017 8.41024 8.05952 11.3495C6.20887 14.2888 5.12025 17.5546 5.12025 21.0382C5.22912 23.7598 5.88229 26.5902 7.29749 29.094Z"/>
</svg>