<svg width="30" height="30" viewBox="0 0 30 30" fill="none" xmlns="http://www.w3.org/2000/svg">
<rect width="30" height="30" rx="15" fill="#FFA819"/>
<path d="M19.6071 15.3066V19.3116C19.6071 19.4616 19.5521 19.5866 19.4421 19.6866C19.3321 19.7866 19.2071 19.8416 19.0671 19.8516H15.8571V16.6416H13.7121V19.8516H10.5021C10.3521 19.8516 10.2271 19.7966 10.1271 19.6866C10.0271 19.5766 9.97206 19.4516 9.96206 19.3116V15.2466L14.7771 11.2866L19.5921 15.2466C19.6021 15.2566 19.6071 15.2766 19.6071 15.3066ZM21.4671 14.7216L20.9571 15.3366C20.9071 15.3866 20.8471 15.4166 20.7771 15.4266H20.7471C20.6771 15.4266 20.6171 15.4116 20.5671 15.3816L14.7771 10.5516L8.98706 15.3816C8.91706 15.4216 8.84956 15.4366 8.78456 15.4266C8.71956 15.4166 8.66206 15.3866 8.61206 15.3366L8.08706 14.7216C8.04706 14.6616 8.03206 14.5966 8.04206 14.5266C8.05206 14.4566 8.08206 14.3966 8.13206 14.3466L14.1471 9.33656C14.3271 9.18656 14.5371 9.11156 14.7771 9.11156C15.0171 9.11156 15.2321 9.18656 15.4221 9.33656L17.4621 11.0316V9.41156C17.4621 9.33156 17.4871 9.26656 17.5371 9.21656C17.5871 9.16656 17.6521 9.14156 17.7321 9.14156H19.3371C19.4171 9.14156 19.4821 9.16656 19.5321 9.21656C19.5821 9.26656 19.6071 9.33156 19.6071 9.41156V12.8166L21.4371 14.3466C21.4971 14.3866 21.5271 14.4466 21.5271 14.5266C21.5271 14.6066 21.5071 14.6716 21.4671 14.7216Z" fill="#4F4F4F"/>
</svg>
