<svg width="56" height="56" viewBox="0 0 56 56" fill="none" xmlns="http://www.w3.org/2000/svg">
<g clip-path="url(#clip0_37_3190)">
<path d="M26.19 14.3166C25.9455 14.3166 25.7316 14.2249 25.5483 14.0416C25.365 13.8583 25.2733 13.6138 25.2733 13.3083C25.2733 13.0027 25.4566 12.7277 25.8233 12.4833L48.0066 4.04994C48.2511 3.92772 48.4955 3.92772 48.74 4.04994C48.9844 4.17216 49.1678 4.3555 49.29 4.59994C49.4122 4.84439 49.4122 5.08883 49.29 5.33327C49.1678 5.57772 48.9844 5.76105 48.74 5.88327L26.5566 14.3166H26.19ZM39.94 25.6833C39.5733 25.6833 39.2983 25.5916 39.115 25.4083C38.9316 25.2249 38.84 25.0111 38.84 24.7666L39.0233 24.2166L43.24 14.4999C43.3622 14.2555 43.5455 14.0722 43.79 13.9499C44.0344 13.8277 44.2789 13.8277 44.5233 13.9499C44.7678 14.0722 44.9511 14.2555 45.0733 14.4999C45.1955 14.7444 45.1955 14.9888 45.0733 15.2333L40.6733 25.1333C40.5511 25.4999 40.3066 25.6833 39.94 25.6833ZM21.24 54.0999C17.4511 54.0999 13.9372 53.1222 10.6983 51.1666C7.45943 49.2111 4.92331 46.6138 3.08998 43.3749C1.25665 40.1361 0.339981 36.5916 0.339981 32.7416C0.339981 28.8916 1.31776 25.3777 3.27331 22.1999C5.22887 19.0222 7.82609 16.4861 11.065 14.5916C14.3039 12.6972 17.8483 11.7805 21.6983 11.8416C25.5483 11.9027 29.0622 12.8805 32.24 14.7749C35.4178 16.6694 37.9539 19.2361 39.8483 22.4749C41.7428 25.7138 42.69 29.2277 42.69 33.0166C42.69 36.8055 41.7122 40.3499 39.7566 43.6499C37.8011 46.9499 35.2039 49.5472 31.965 51.4416C28.7261 53.3361 25.1511 54.2222 21.24 54.0999ZM21.24 13.7666C17.8178 13.8888 14.64 14.8055 11.7066 16.5166C8.77331 18.2277 6.45109 20.5805 4.73998 23.5749C3.02887 26.5694 2.20387 29.8083 2.26498 33.2916C2.32609 36.7749 3.24276 39.9527 5.01498 42.8249C6.7872 45.6972 9.13998 47.9888 12.0733 49.6999C15.0066 51.4111 18.215 52.2361 21.6983 52.1749C25.1816 52.1138 28.3594 51.2277 31.2316 49.5166C34.1039 47.8055 36.3955 45.4833 38.1066 42.5499C39.8178 39.6166 40.6733 36.4083 40.6733 32.9249C40.6733 29.4416 39.7872 26.2333 38.015 23.2999C36.2428 20.3666 33.89 18.0444 30.9566 16.3333C28.0233 14.6222 24.7844 13.7666 21.24 13.7666ZM21.24 48.2333C18.5511 48.2333 16.0455 47.5305 13.7233 46.1249C11.4011 44.7194 9.56776 42.8555 8.22331 40.5333C6.87887 38.2111 6.20665 35.6749 6.20665 32.9249C6.20665 30.1749 6.90943 27.6388 8.31498 25.3166C9.72054 22.9944 11.5844 21.1611 13.9066 19.8166C16.2289 18.4722 18.765 17.7999 21.515 17.7999C24.265 17.7999 26.8011 18.5027 29.1233 19.9083C31.4455 21.3138 33.2789 23.1777 34.6233 25.4999C35.9678 27.8222 36.64 30.3583 36.64 33.1083C36.64 35.8583 35.9372 38.3944 34.5316 40.7166C33.1261 43.0388 31.2622 44.8722 28.94 46.2166C26.6178 47.5611 24.0511 48.2333 21.24 48.2333ZM21.24 19.6333C18.9178 19.7555 16.7178 20.4277 14.64 21.6499C12.5622 22.8722 10.9428 24.4916 9.78165 26.5083C8.62054 28.5249 8.07054 30.7555 8.13165 33.1999C8.19276 35.6444 8.83443 37.8749 10.0566 39.8916C11.2789 41.9083 12.8983 43.4972 14.915 44.6583C16.9316 45.8194 19.1316 46.3694 21.515 46.3083C23.8983 46.2472 26.0983 45.6361 28.115 44.4749C30.1316 43.3138 31.7511 41.7249 32.9733 39.7083C34.1955 37.6916 34.7761 35.4611 34.715 33.0166C34.6539 30.5722 34.0428 28.3416 32.8816 26.3249C31.7205 24.3083 30.1011 22.6888 28.0233 21.4666C25.9455 20.2444 23.6844 19.6333 21.24 19.6333ZM21.24 33.9333C20.9955 33.9333 20.8122 33.8722 20.69 33.7499L15.74 29.8999C15.4955 29.7777 15.3733 29.5944 15.3733 29.3499C15.3733 29.1055 15.4344 28.8611 15.5566 28.6166C15.6789 28.3722 15.8928 28.2499 16.1983 28.2499C16.5039 28.2499 16.7789 28.3111 17.0233 28.4333L20.3233 30.9999V22.7499C20.3233 22.3833 20.415 22.1083 20.5983 21.9249C20.7816 21.7416 20.9955 21.6499 21.24 21.6499C21.4844 21.6499 21.7289 21.7416 21.9733 21.9249C22.2178 22.1083 22.34 22.3833 22.34 22.7499V33.0166C22.34 33.3833 22.1566 33.6888 21.79 33.9333H21.24ZM49.84 21.6499C49.5955 21.6499 49.4122 21.5888 49.29 21.4666L37.5566 9.54994C37.4344 9.3055 37.3733 9.06105 37.3733 8.81661C37.3733 8.57216 37.4344 8.32772 37.5566 8.08327L37.9233 7.89994L48.0066 4.04994C48.2511 3.92772 48.4955 3.92772 48.74 4.04994C48.9844 4.17216 49.1678 4.3555 49.29 4.59994L50.94 20.7333C50.94 20.9777 50.8483 21.1916 50.665 21.3749C50.4816 21.5583 50.2678 21.6499 50.0233 21.6499H49.84ZM39.94 9.18327L48.74 18.1666L47.64 6.24994L39.94 9.18327ZM50.94 27.1499C49.7178 27.1499 48.6789 26.6916 47.8233 25.7749C46.9678 24.8583 46.54 23.7888 46.54 22.5666C46.54 21.3444 46.9678 20.3055 47.8233 19.4499C48.6789 18.5944 49.7178 18.1972 50.94 18.2583C52.1622 18.3194 53.2011 18.7777 54.0566 19.6333C54.9122 20.4888 55.34 21.5277 55.34 22.7499C55.34 23.9722 54.9122 25.0111 54.0566 25.8666C53.2011 26.7222 52.1622 27.1499 50.94 27.1499ZM50.94 20.1833C50.2066 20.1833 49.5955 20.4277 49.1066 20.9166C48.6178 21.4055 48.3733 21.9861 48.3733 22.6583C48.3733 23.3305 48.6178 23.9111 49.1066 24.3999C49.5955 24.8888 50.2066 25.1333 50.94 25.1333C51.6733 25.1333 52.2539 24.8888 52.6816 24.3999C53.1094 23.9111 53.3233 23.3305 53.3233 22.6583C53.3233 21.9861 53.0789 21.4055 52.59 20.9166C52.1011 20.4277 51.5511 20.1833 50.94 20.1833ZM8.58998 13.7666H5.10665C4.8622 13.7666 4.64831 13.6749 4.46498 13.4916C4.28165 13.3083 4.18998 13.0944 4.18998 12.8499C4.18998 12.6055 4.25109 12.4222 4.37331 12.2999L6.57331 9.36661H5.10665C4.8622 9.36661 4.64831 9.27494 4.46498 9.09161C4.28165 8.90828 4.18998 8.69439 4.18998 8.44994C4.18998 8.2055 4.28165 7.99161 4.46498 7.80827C4.64831 7.62494 4.8622 7.53328 5.10665 7.53328H8.58998C8.83443 7.53328 9.04832 7.62494 9.23165 7.80827C9.41498 7.99161 9.50665 8.2055 9.50665 8.44994C9.50665 8.69439 9.44554 8.87772 9.32331 8.99994L7.12331 11.9333H8.58998C8.83443 11.9333 9.04832 12.0249 9.23165 12.2083C9.41498 12.3916 9.50665 12.6055 9.50665 12.8499C9.50665 13.0944 9.41498 13.3083 9.23165 13.4916C9.04832 13.6749 8.83443 13.7666 8.58998 13.7666ZM17.94 7.53328H14.64C14.3955 7.53328 14.1816 7.44161 13.9983 7.25827C13.815 7.07494 13.7233 6.86105 13.7233 6.61661C13.7233 6.37216 13.7844 6.18883 13.9066 6.06661L16.1066 3.13327H14.64C14.3955 3.13327 14.1816 3.04161 13.9983 2.85827C13.815 2.67494 13.7233 2.46105 13.7233 2.21661C13.7233 1.97216 13.815 1.75827 13.9983 1.57494C14.1816 1.39161 14.3955 1.29994 14.64 1.29994H17.94C18.3066 1.29994 18.5816 1.39161 18.765 1.57494C18.9483 1.75827 19.04 1.97216 19.04 2.21661C19.04 2.46105 18.9789 2.64439 18.8566 2.76661L16.6566 5.69994H17.94C18.3066 5.69994 18.5816 5.79161 18.765 5.97494C18.9483 6.15828 19.04 6.37216 19.04 6.61661C19.04 6.86105 18.9483 7.07494 18.765 7.25827C18.5816 7.44161 18.3066 7.53328 17.94 7.53328Z" fill="#9F9F9F"/>
</g>
<defs>
<clipPath id="clip0_37_3190">
<rect width="55.02" height="55" fill="white" transform="matrix(1 0 0 -1 0.329987 55.2)"/>
</clipPath>
</defs>
</svg>
