<svg width="56" height="56" viewBox="0 0 56 56" fill="none" xmlns="http://www.w3.org/2000/svg">
<g clip-path="url(#clip0_37_3218)">
<path d="M47.3955 18.3499V27.5166C47.3955 27.7611 47.3344 27.975 47.2122 28.1583C47.09 28.3416 46.8761 28.4333 46.5705 28.4333C46.265 28.4333 46.0205 28.3416 45.8372 28.1583C45.6539 27.975 45.5622 27.7611 45.5622 27.5166V18.3499C45.5622 18.1055 45.6539 17.8916 45.8372 17.7083C46.0205 17.525 46.265 17.4333 46.5705 17.4333C46.8761 17.4333 47.09 17.525 47.2122 17.7083C47.3344 17.8916 47.3955 18.1055 47.3955 18.3499ZM43.5455 21.8333V31.7333C43.5455 35.1555 42.5372 38.2111 40.5205 40.9C38.5039 43.5888 35.9067 45.5138 32.7289 46.675C29.5511 47.8361 26.2511 47.8666 22.8289 46.7666V48.05C22.8289 50.0055 22.1566 51.6861 20.8122 53.0916C19.4678 54.4972 17.7566 55.2 15.6789 55.2C15.4344 55.2 15.2205 55.1083 15.0372 54.925C14.8539 54.7416 14.7622 54.5277 14.7622 54.2833C14.7622 54.0388 14.8539 53.825 15.0372 53.6416C15.2205 53.4583 15.4344 53.3666 15.6789 53.3666C17.1455 53.3666 18.3983 52.8472 19.4372 51.8083C20.4761 50.7694 20.9955 49.5166 20.9955 48.05V46.0333C18.3066 44.8111 16.1372 42.9166 14.4872 40.35C12.8372 37.7833 11.9511 34.9722 11.8289 31.9166C10.7289 31.7944 9.84276 31.3055 9.17054 30.45C8.49831 29.5944 8.1622 28.6166 8.1622 27.5166V12.8499C8.1622 11.5055 8.55943 10.375 9.35387 9.45828C10.1483 8.54162 11.2178 8.02217 12.5622 7.89995C13.54 5.57773 15.0983 3.71384 17.2372 2.30828C19.3761 0.902729 21.7289 0.199951 24.2955 0.199951H34.5622C36.64 0.199951 38.5955 0.688839 40.4289 1.66662C40.5511 1.78884 40.6733 1.94162 40.7955 2.12495C40.9178 2.30828 40.9178 2.52217 40.7955 2.76662C40.6733 3.01106 40.49 3.16384 40.2455 3.22495C40.0011 3.28606 39.7566 3.31662 39.5122 3.31662C37.9233 2.46106 36.2733 2.03328 34.5622 2.03328H24.2955C21.9733 2.03328 19.865 2.67495 17.9705 3.95828C16.0761 5.24162 14.7622 6.92217 14.0289 8.99995C13.7844 9.36662 13.4789 9.54995 13.1122 9.54995C12.2566 9.54995 11.5233 9.85551 10.9122 10.4666C10.3011 11.0777 9.99554 11.8722 9.99554 12.8499V27.5166C9.99554 28.1277 10.1789 28.6777 10.5455 29.1666C10.9122 29.6555 11.34 29.9611 11.8289 30.0833V21.8333C11.8289 19.6333 12.6233 17.7388 14.2122 16.15C15.8011 14.5611 17.7566 13.7666 20.0789 13.7666H35.4789C37.6789 13.7666 39.5733 14.5611 41.1622 16.15C42.7511 17.7388 43.5455 19.6333 43.5455 21.8333ZM41.7122 21.8333C41.7122 20.1222 41.1011 18.6555 39.8789 17.4333C38.6567 16.2111 37.19 15.5999 35.4789 15.5999H20.0789C18.2455 15.5999 16.7178 16.2111 15.4955 17.4333C14.2733 18.6555 13.6622 20.1222 13.6622 21.8333V31.55C13.6622 34.1166 14.3039 36.4694 15.5872 38.6083C16.8705 40.7472 18.5816 42.4583 20.7205 43.7416C22.8594 45.025 25.1816 45.6666 27.6872 45.6666C30.1928 45.6666 32.5455 45.025 34.7455 43.7416C36.9455 42.4583 38.6567 40.7472 39.8789 38.6083C41.1011 36.4694 41.7122 34.1166 41.7122 31.55V21.8333ZM39.6955 53.3666C38.7178 53.3666 37.8316 53.1527 37.0372 52.725C36.2428 52.2972 35.6011 51.6555 35.1122 50.8C34.99 50.5555 34.8066 50.4027 34.5622 50.3416C34.3178 50.2805 34.1039 50.3111 33.9205 50.4333C33.7372 50.5555 33.615 50.7388 33.5539 50.9833C33.4928 51.2277 33.5233 51.4722 33.6455 51.7166C34.2566 52.8166 35.1122 53.6722 36.2122 54.2833C37.3122 54.8944 38.4733 55.2 39.6955 55.2C39.94 55.2 40.1539 55.1083 40.3372 54.925C40.5205 54.7416 40.6122 54.5277 40.6122 54.2833C40.6122 54.0388 40.5205 53.825 40.3372 53.6416C40.1539 53.4583 39.94 53.3666 39.6955 53.3666ZM25.0289 25.1333L21.3622 22.3833C21.1178 22.2611 20.8733 22.2 20.6289 22.2C20.3844 22.2 20.2011 22.3222 20.0789 22.5666C19.9566 22.8111 19.8955 23.0555 19.8955 23.2999C19.8955 23.5444 20.0178 23.7277 20.2622 23.85L23.0122 25.8666L20.2622 27.8833C19.8955 28.1277 19.7733 28.4638 19.8955 28.8916C20.0178 29.3194 20.2622 29.5333 20.6289 29.5333C20.9955 29.5333 21.24 29.4722 21.3622 29.35L25.0289 26.6C25.2733 26.4777 25.3955 26.2638 25.3955 25.9583C25.3955 25.6527 25.2733 25.3777 25.0289 25.1333ZM36.2122 22.5666C36.09 22.3222 35.9067 22.2 35.6622 22.2C35.4178 22.2 35.1733 22.2611 34.9289 22.3833L31.2622 25.1333C31.0178 25.3777 30.8955 25.6527 30.8955 25.9583C30.8955 26.2638 31.0178 26.4777 31.2622 26.6L34.9289 29.35C35.1733 29.4722 35.4178 29.5333 35.6622 29.5333C35.9067 29.5333 36.09 29.4111 36.2122 29.1666C36.3344 28.9222 36.3955 28.6777 36.3955 28.4333C36.3955 28.1888 36.2733 28.0055 36.0289 27.8833L33.2789 25.8666L36.0289 23.85C36.2733 23.7277 36.3955 23.5444 36.3955 23.2999C36.3955 23.0555 36.3344 22.8111 36.2122 22.5666ZM53.8122 9.18328C54.0566 9.42773 54.1483 9.70273 54.0872 10.0083C54.0261 10.3138 53.8733 10.5277 53.6289 10.65L43.7289 15.2333C43.3622 15.3555 43.0261 15.2333 42.7205 14.8666C42.415 14.5 42.3844 14.1333 42.6289 13.7666L45.7455 9.36662L42.6289 6.43328C42.5066 6.18884 42.4761 5.91384 42.5372 5.60828C42.5983 5.30273 42.7511 5.08884 42.9955 4.96662L52.8955 0.383282C53.2622 0.261063 53.5983 0.383282 53.9039 0.74995C54.2094 1.11662 54.24 1.48328 53.9955 1.84995L50.8789 6.24995L53.8122 9.18328ZM51.6122 9.54995L49.0455 6.98328C48.8011 6.86106 48.6789 6.67773 48.6789 6.43328C48.6789 6.18884 48.74 5.94439 48.8622 5.69995L50.5122 3.49995L45.0122 6.06662L47.5789 8.63328C47.7011 8.7555 47.7928 8.93884 47.8539 9.18328C47.915 9.42773 47.8844 9.61106 47.7622 9.73328L46.1122 12.1166L51.6122 9.54995ZM8.52887 5.51662L6.5122 1.84995C6.38998 1.60551 6.17609 1.45273 5.87054 1.39162C5.56498 1.33051 5.28998 1.42217 5.04554 1.66662L3.39554 3.31662L2.1122 0.74995C1.98998 0.505505 1.80665 0.352726 1.5622 0.291618C1.31776 0.230507 1.07331 0.261063 0.82887 0.383282C0.584426 0.505505 0.431648 0.688839 0.370537 0.933285C0.309426 1.17773 0.339981 1.36106 0.462203 1.48328L2.47887 5.14995C2.60109 5.39439 2.81498 5.54717 3.12054 5.60828C3.42609 5.6694 3.70109 5.57773 3.94554 5.33328L5.4122 3.86662L6.87887 6.24995C7.00109 6.4944 7.18443 6.64717 7.42887 6.70828C7.67332 6.76939 7.8872 6.73884 8.07054 6.61662C8.25387 6.4944 8.40665 6.31106 8.52887 6.06662C8.65109 5.82217 8.65109 5.63884 8.52887 5.51662ZM4.49554 17.4333L2.1122 18.7166C1.86776 18.9611 1.71498 19.2361 1.65387 19.5416C1.59276 19.8472 1.68443 20.0611 1.92887 20.1833L2.6622 21.0999L1.19554 21.8333C1.07331 21.9555 0.951092 22.1388 0.82887 22.3833C0.706648 22.6277 0.706648 22.8416 0.82887 23.025C0.951092 23.2083 1.13443 23.3305 1.37887 23.3916C1.62331 23.4527 1.86776 23.4222 2.1122 23.2999L4.49554 22.0166C4.8622 21.8944 5.04554 21.6805 5.04554 21.375C5.04554 21.0694 4.98443 20.7944 4.8622 20.5499L3.94554 19.8166L5.4122 19.0833C5.53443 18.9611 5.65665 18.7777 5.77887 18.5333C5.90109 18.2888 5.90109 18.075 5.77887 17.8916C5.65665 17.7083 5.47331 17.5555 5.22887 17.4333C4.98443 17.3111 4.73998 17.3111 4.49554 17.4333ZM34.0122 34.85L32.1789 33.5666C31.8122 33.2 31.4455 33.2 31.0789 33.5666L29.7955 34.4833L28.6955 33.5666C28.3289 33.2 27.9622 33.2 27.5955 33.5666L26.3122 34.4833L25.0289 33.5666C24.6622 33.2 24.2955 33.2 23.9289 33.5666L22.2789 34.85C22.0344 35.0944 21.8816 35.3388 21.8205 35.5833C21.7594 35.8277 21.8205 36.0416 22.0039 36.225C22.1872 36.4083 22.4011 36.5 22.6455 36.5C22.89 36.5 23.1344 36.4388 23.3789 36.3166L24.4789 35.4L25.7622 36.3166C26.1289 36.6833 26.4955 36.6833 26.8622 36.3166L28.1455 35.4L29.2455 36.3166C29.6122 36.6833 29.9789 36.6833 30.3455 36.3166L31.6289 35.4L32.9122 36.5C33.0344 36.5 33.2178 36.5 33.4622 36.5C33.8289 36.5 34.1039 36.2861 34.2872 35.8583C34.4705 35.4305 34.3789 35.0944 34.0122 34.85Z" fill="#9F9F9F"/>
</g>
<defs>
<clipPath id="clip0_37_3218">
<rect width="55.02" height="55" fill="white" transform="matrix(1 0 0 -1 0.329987 55.2)"/>
</clipPath>
</defs>
</svg>
