<svg xmlns="http://www.w3.org/2000/svg" xmlns:xlink="http://www.w3.org/1999/xlink" viewBox="0,0,256,256" width="48px" height="48px" fill-rule="nonzero"><g fill="none" fill-rule="nonzero" stroke="none" stroke-width="1" stroke-linecap="butt" stroke-linejoin="miter" stroke-miterlimit="10" stroke-dasharray="" stroke-dashoffset="0" font-family="none" font-weight="none" font-size="none" text-anchor="none" style="mix-blend-mode: normal"><g transform="scale(5.33333,5.33333)"><path d="M44,24c0,11.045 -8.955,20 -20,20c-11.045,0 -20,-8.955 -20,-20c0,-11.045 8.955,-20 20,-20c11.045,0 20,8.955 20,20z" fill="#27a7e8"></path><path d="M11.553,23.717c6.99,-3.075 16.035,-6.824 17.284,-7.343c3.275,-1.358 4.28,-1.098 3.779,1.91c-0.36,2.162 -1.398,9.319 -2.226,13.774c-0.491,2.642 -1.593,2.955 -3.325,1.812c-0.833,-0.55 -5.038,-3.331 -5.951,-3.984c-0.833,-0.595 -1.982,-1.311 -0.541,-2.721c0.513,-0.502 3.874,-3.712 6.493,-6.21c0.343,-0.328 -0.088,-0.867 -0.484,-0.604c-3.53,2.341 -8.424,5.59 -9.047,6.013c-0.941,0.639 -1.845,0.932 -3.467,0.466c-1.226,-0.352 -2.423,-0.772 -2.889,-0.932c-1.795,-0.616 -1.369,-1.414 0.374,-2.181z" fill="#ffffff"></path></g></g></svg>