<svg width="56" height="56" viewBox="0 0 56 56" fill="none" xmlns="http://www.w3.org/2000/svg">
<g clip-path="url(#clip0_37_3232)">
<path d="M19.42 44.2C19.1755 44.2 18.9617 44.2916 18.7783 44.475C18.595 44.6583 18.5033 44.8722 18.5033 45.1166V46.0333C18.5033 46.7666 18.7172 47.4388 19.145 48.05C19.5728 48.6611 20.1533 49.1194 20.8867 49.425C21.62 49.7305 22.3533 49.7916 23.0867 49.6083C23.82 49.425 24.4311 49.0277 24.92 48.4166C25.4089 49.0277 26.02 49.425 26.7533 49.6083C27.4867 49.7916 28.22 49.7305 28.9533 49.425C29.6866 49.1194 30.2672 48.6611 30.695 48.05C31.1228 47.4388 31.3367 46.7666 31.3367 46.0333V45.1166C31.3367 44.8722 31.245 44.6583 31.0616 44.475C30.8783 44.2916 30.6644 44.2 30.42 44.2C30.1755 44.2 29.9617 44.2916 29.7783 44.475C29.595 44.6583 29.5033 44.8722 29.5033 45.1166V46.0333C29.5033 46.5222 29.32 46.95 28.9533 47.3166C28.5867 47.6833 28.1589 47.8666 27.67 47.8666C27.1811 47.8666 26.7533 47.6833 26.3867 47.3166C26.02 46.95 25.8367 46.5222 25.8367 46.0333V43.1C26.2033 42.9777 26.5089 42.7944 26.7533 42.55L28.0366 41.0833C28.6478 40.4722 28.77 39.8 28.4033 39.0666C28.2811 38.7 28.0366 38.3944 27.67 38.15C27.3033 37.9055 26.8755 37.7833 26.3867 37.7833H23.6367C23.1478 37.7833 22.72 37.9055 22.3533 38.15C21.9867 38.3944 21.6811 38.7 21.4366 39.0666C21.07 39.8 21.1922 40.4722 21.8033 41.0833L23.27 42.55C23.5144 42.7944 23.7589 42.9777 24.0033 43.1V46.0333C24.0033 46.5222 23.82 46.95 23.4533 47.3166C23.0867 47.6833 22.6589 47.8666 22.17 47.8666C21.6811 47.8666 21.2533 47.6833 20.8867 47.3166C20.52 46.95 20.3367 46.5222 20.3367 46.0333V45.1166C20.3367 44.8722 20.245 44.6583 20.0616 44.475C19.8783 44.2916 19.6644 44.2 19.42 44.2ZM23.0867 39.8C23.2089 39.6777 23.3922 39.6166 23.6367 39.6166H26.3867H26.7533V39.8L25.47 41.2666C25.1033 41.5111 24.7978 41.5111 24.5533 41.2666L23.0867 39.8ZM13.37 34.6666C15.0811 34.0555 16.3644 33.9944 17.22 34.4833C17.9533 34.85 18.3811 35.4 18.5033 36.1333C18.6255 36.3777 18.7783 36.5611 18.9617 36.6833C19.145 36.8055 19.3589 36.8361 19.6033 36.775C19.8478 36.7138 20.0616 36.5916 20.245 36.4083C20.4283 36.225 20.4589 36.0111 20.3367 35.7666C20.0922 34.4222 19.3589 33.4444 18.1367 32.8333C16.67 32.1 14.8366 32.1611 12.6367 33.0166C12.5144 33.0166 12.3922 33.1388 12.27 33.3833C12.1478 33.6277 12.1172 33.8722 12.1783 34.1166C12.2394 34.3611 12.3922 34.5444 12.6367 34.6666C12.8811 34.7888 13.1255 34.7888 13.37 34.6666ZM29.32 36.8666C29.5644 36.8666 29.8089 36.8055 30.0533 36.6833C30.2978 36.5611 30.42 36.3777 30.42 36.1333C30.6644 35.4 31.0922 34.85 31.7033 34.4833C32.6811 33.9944 33.9644 34.0555 35.5533 34.6666C35.7978 34.7888 36.0422 34.7888 36.2867 34.6666C36.5311 34.5444 36.7144 34.3611 36.8367 34.1166C36.9589 33.8722 36.9589 33.6277 36.8367 33.3833C36.7144 33.1388 36.5311 33.0166 36.2867 33.0166C34.0867 32.1611 32.3144 32.1 30.97 32.8333C29.7478 33.4444 28.9533 34.4222 28.5867 35.7666C28.5867 36.0111 28.6478 36.225 28.77 36.4083C28.8922 36.5916 29.0755 36.7444 29.32 36.8666ZM1.08665 35.95C1.94221 35.95 2.79776 36.0111 3.65332 36.1333C3.16443 37.6 2.91998 39.0666 2.91998 40.5333C2.18665 40.7777 1.45332 41.1444 0.719983 41.6333C0.353316 41.7555 0.169983 42 0.169983 42.3666C0.169983 42.7333 0.353316 43.0083 0.719983 43.1916C1.08665 43.375 1.45332 43.3444 1.81998 43.1C2.18665 42.8555 2.61443 42.6111 3.10332 42.3666C3.22554 43.4666 3.53109 44.5666 4.01998 45.6666C3.16443 46.1555 2.49221 46.8583 2.00332 47.775C1.51443 48.6916 1.20887 49.6388 1.08665 50.6166C1.08665 51.9611 1.75887 53.0611 3.10332 53.9166C4.44776 54.7722 6.18943 55.2305 8.32832 55.2916C10.4672 55.3527 12.4533 54.8333 14.2866 53.7333C17.7089 54.7111 21.2533 55.2 24.92 55.2C28.5867 55.2 32.1922 54.7111 35.7366 53.7333C37.4478 54.8333 39.4033 55.3527 41.6033 55.2916C43.8033 55.2305 45.545 54.7722 46.8283 53.9166C48.1117 53.0611 48.7533 51.9611 48.7533 50.6166C48.7533 49.6388 48.4783 48.6916 47.9283 47.775C47.3783 46.8583 46.6755 46.1555 45.82 45.6666C46.3089 44.5666 46.6144 43.4666 46.7367 42.3666C47.3478 42.6111 47.8367 42.8555 48.2033 43.1C48.57 43.3444 48.9061 43.375 49.2117 43.1916C49.5172 43.0083 49.7005 42.7333 49.7617 42.3666C49.8228 42 49.67 41.7555 49.3033 41.6333C48.57 41.1444 47.7755 40.7777 46.92 40.5333C46.92 39.0666 46.7367 37.6 46.37 36.1333C47.1033 36.0111 47.8978 35.95 48.7533 35.95C48.9978 35.95 49.2117 35.8583 49.395 35.675C49.5783 35.4916 49.67 35.2777 49.67 35.0333C49.67 34.7888 49.5783 34.575 49.395 34.3916C49.2117 34.2083 48.9978 34.1166 48.7533 34.1166C47.7755 34.1166 46.7367 34.1777 45.6367 34.3C45.27 33.3222 44.8422 32.4055 44.3533 31.55C44.9644 29.4722 45.4533 27.3944 45.82 25.3166C46.3089 22.0166 46.1255 19.7555 45.27 18.5333C44.7811 17.9222 44.1089 17.6166 43.2533 17.6166C41.9089 17.7388 40.6255 18.1055 39.4033 18.7166C38.3033 17.1277 36.7755 15.7527 34.82 14.5916C32.8644 13.4305 30.6644 12.6666 28.22 12.3C28.22 11.0777 28.0978 9.85551 27.8533 8.63329C27.7311 8.1444 27.7617 7.65551 27.945 7.16662C28.1283 6.67773 28.4033 6.24996 28.77 5.88329C29.6255 5.3944 30.8478 5.76107 32.4366 6.98329C33.2922 7.5944 34.2089 7.68607 35.1866 7.25829C36.1644 6.83051 36.7144 6.06662 36.8367 4.96663C36.9589 3.86662 36.5922 3.01107 35.7366 2.39996C33.5367 0.811069 31.3978 0.0777359 29.32 0.199959C27.9755 0.322178 26.7533 0.688847 25.6533 1.29996C24.3089 2.27774 23.3311 3.56107 22.72 5.14996C22.1089 6.73885 21.9867 8.32773 22.3533 9.91662C22.5978 10.65 22.72 11.4444 22.72 12.3C20.1533 12.5444 17.8005 13.2472 15.6616 14.4083C13.5228 15.5694 11.7811 17.0055 10.4366 18.7166C9.33665 18.1055 8.05332 17.7388 6.58665 17.6166C5.85332 17.6166 5.24221 17.9222 4.75332 18.5333C3.89776 19.7555 3.71443 22.0166 4.20332 25.3166C4.44776 27.2722 4.93665 29.35 5.66998 31.55C5.18109 32.4055 4.69221 33.3222 4.20332 34.3C3.22554 34.1777 2.18665 34.1166 1.08665 34.1166C0.842205 34.1166 0.628316 34.2083 0.444983 34.3916C0.26165 34.575 0.169983 34.7888 0.169983 35.0333C0.169983 35.2777 0.26165 35.4916 0.444983 35.675C0.628316 35.8583 0.842205 35.95 1.08665 35.95ZM2.91998 50.6166C2.91998 49.5166 3.50054 48.4777 4.66165 47.5C5.82276 46.5222 7.10609 46.0333 8.51165 46.0333C9.9172 46.0333 11.17 46.5222 12.27 47.5C13.37 48.4777 13.92 49.5472 13.92 50.7083C13.92 51.8694 13.0033 52.6333 11.17 53V52.45V50.6166C11.17 50.3722 11.0783 50.1583 10.895 49.975C10.7116 49.7916 10.4978 49.7 10.2533 49.7C10.0089 49.7 9.79498 49.7916 9.61165 49.975C9.42832 50.1583 9.33665 50.3722 9.33665 50.6166V52.45C9.33665 52.6944 9.24498 52.9083 9.06165 53.0916C8.87832 53.275 8.66443 53.3666 8.41998 53.3666C8.17554 53.3666 7.96165 53.275 7.77832 53.0916C7.59498 52.9083 7.50332 52.6944 7.50332 52.45V50.6166C7.50332 50.3722 7.41165 50.1583 7.22832 49.975C7.04498 49.7916 6.83109 49.7 6.58665 49.7C6.34221 49.7 6.12832 49.7916 5.94498 49.975C5.76165 50.1583 5.66998 50.3722 5.66998 50.6166V52.45L5.85332 53C3.89776 52.6333 2.91998 51.8388 2.91998 50.6166ZM46.92 50.6166C46.92 51.8388 46.0033 52.6333 44.17 53V52.45V50.6166C44.17 50.3722 44.0783 50.1583 43.895 49.975C43.7117 49.7916 43.4978 49.7 43.2533 49.7C43.0089 49.7 42.795 49.7916 42.6117 49.975C42.4283 50.1583 42.3367 50.3722 42.3367 50.6166V52.45C42.3367 52.6944 42.245 52.9083 42.0616 53.0916C41.8783 53.275 41.6644 53.3666 41.42 53.3666C41.1755 53.3666 40.9617 53.275 40.7783 53.0916C40.595 52.9083 40.5033 52.6944 40.5033 52.45V50.6166C40.5033 50.3722 40.4117 50.1583 40.2283 49.975C40.045 49.7916 39.8311 49.7 39.5867 49.7C39.3422 49.7 39.1283 49.7916 38.945 49.975C38.7617 50.1583 38.67 50.3722 38.67 50.6166V52.45L38.8533 53C36.8978 52.6333 35.92 51.8694 35.92 50.7083C35.92 49.5472 36.5005 48.4777 37.6617 47.5C38.8228 46.5222 40.1061 46.0333 41.5117 46.0333C42.9172 46.0333 44.17 46.5222 45.27 47.5C46.37 48.4777 46.92 49.5166 46.92 50.6166ZM24.1866 9.54995C23.9422 8.32773 24.0339 7.10551 24.4617 5.88329C24.8894 4.66107 25.5922 3.71384 26.57 3.04162C27.5478 2.3694 28.5867 2.03329 29.6866 2.03329C31.2755 2.03329 32.9255 2.6444 34.6367 3.86662C35.0033 4.11107 35.1561 4.41662 35.095 4.78329C35.0339 5.14996 34.8505 5.3944 34.545 5.51662C34.2394 5.63885 33.9033 5.63885 33.5367 5.51662C31.2144 3.68329 29.2589 3.31662 27.67 4.41662C26.9366 4.90551 26.4172 5.57774 26.1117 6.43329C25.8061 7.28885 25.7755 8.20551 26.02 9.18329C26.2644 10.1611 26.3867 11.1388 26.3867 12.1166H24.5533C24.5533 11.2611 24.4311 10.4055 24.1866 9.54995ZM24.92 13.95C27.6089 13.95 30.1144 14.4694 32.4366 15.5083C34.7589 16.5472 36.5311 17.9222 37.7533 19.6333C36.5311 20.3666 35.1866 21.2222 33.72 22.2C30.9089 20.9777 27.9755 20.3666 24.92 20.3666C21.8644 20.3666 18.9922 20.9777 16.3033 22.2C14.8366 21.2222 13.4311 20.3666 12.0866 19.6333C13.4311 17.9222 15.2339 16.5472 17.495 15.5083C19.7561 14.4694 22.2311 13.95 24.92 13.95ZM7.50332 31.3666C6.64776 28.8 6.09776 26.3861 5.85332 24.125C5.60887 21.8638 5.73109 20.3666 6.21998 19.6333C6.34221 19.5111 6.46443 19.45 6.58665 19.45C7.93109 19.5722 9.15332 20 10.2533 20.7333H10.4366C12.27 21.7111 13.9811 22.8111 15.57 24.0333C15.9367 24.2777 16.2422 24.2777 16.4867 24.0333C19.1755 22.8111 22.0172 22.2 25.0117 22.2C28.0061 22.2 30.7866 22.8111 33.3533 24.0333C33.72 24.2777 34.0255 24.2777 34.27 24.0333C38.67 20.9777 41.6644 19.45 43.2533 19.45C43.4978 19.45 43.6811 19.5111 43.8033 19.6333C44.2922 20.3666 44.3839 21.8638 44.0783 24.125C43.7728 26.3861 43.2533 28.8 42.52 31.3666C42.3978 31.7333 42.3978 32.0388 42.52 32.2833C43.0089 33.0166 43.4366 33.8111 43.8033 34.6666C41.7255 35.0333 39.8311 35.8277 38.12 37.05C37.9978 37.1722 37.9061 37.3555 37.845 37.6C37.7839 37.8444 37.845 38.0583 38.0283 38.2416C38.2117 38.425 38.4255 38.5472 38.67 38.6083C38.9144 38.6694 39.0978 38.6388 39.22 38.5166C40.8089 37.4166 42.5811 36.6833 44.5367 36.3166C44.9033 37.5388 45.0867 38.7611 45.0867 39.9833C43.62 39.7388 42.0922 39.6166 40.5033 39.6166C40.2589 39.6166 40.045 39.7083 39.8616 39.8916C39.6783 40.075 39.5867 40.2888 39.5867 40.5333C39.5867 40.7777 39.6783 40.9916 39.8616 41.175C40.045 41.3583 40.2589 41.45 40.5033 41.45C42.0922 41.45 43.62 41.6333 45.0867 42C44.9644 42.9777 44.72 43.8944 44.3533 44.75C43.3755 44.3833 42.3978 44.2 41.42 44.2C39.4644 44.2 37.7533 44.8722 36.2867 46.2166C34.82 47.5611 34.0867 49.0277 34.0867 50.6166C34.0867 51.1055 34.2089 51.5944 34.4533 52.0833C31.3978 52.9388 28.2505 53.3666 25.0117 53.3666C21.7728 53.3666 18.6255 52.9388 15.57 52.0833C15.6922 51.5944 15.7533 51.1055 15.7533 50.6166C15.7533 49.0277 15.0505 47.5611 13.645 46.2166C12.2394 44.8722 10.4978 44.2 8.41998 44.2C7.44221 44.2 6.52554 44.3833 5.66998 44.75C5.30332 43.8944 5.05887 42.9777 4.93665 42C6.40332 41.6333 7.86998 41.45 9.33665 41.45C9.58109 41.45 9.79498 41.3583 9.97832 41.175C10.1616 40.9916 10.2533 40.7777 10.2533 40.5333C10.2533 40.2888 10.1616 40.075 9.97832 39.8916C9.79498 39.7083 9.58109 39.6166 9.33665 39.6166C7.86998 39.6166 6.34221 39.7388 4.75332 39.9833C4.87554 38.7611 5.11998 37.5388 5.48665 36.3166C7.31998 36.6833 9.03109 37.4166 10.62 38.5166C10.8644 38.6388 11.1089 38.6694 11.3533 38.6083C11.5978 38.5472 11.7811 38.425 11.9033 38.2416C12.0255 38.0583 12.0866 37.8444 12.0866 37.6C12.0866 37.3555 11.9644 37.1722 11.72 37.05C10.0089 35.8277 8.11443 35.0333 6.03665 34.6666C6.40332 33.8111 6.89221 32.9555 7.50332 32.1C7.62554 31.8555 7.62554 31.6111 7.50332 31.3666Z" fill="#9F9F9F"/>
</g>
<defs>
<clipPath id="clip0_37_3232">
<rect width="55.02" height="55" fill="white" transform="matrix(1 0 0 -1 0.159973 55.2)"/>
</clipPath>
</defs>
</svg>
