<svg width="56" height="56" viewBox="0 0 56 56" fill="none" xmlns="http://www.w3.org/2000/svg">
<g clip-path="url(#clip0_37_3203)">
<path d="M28.77 31.3666H26.57C26.0811 31.3666 25.6228 31.55 25.195 31.9166C24.7672 32.2833 24.5533 32.7722 24.5533 33.3833V35.95C24.5533 36.3166 24.4311 36.5 24.1866 36.5H21.4366C20.9478 36.5 20.4894 36.6833 20.0616 37.05C19.6339 37.4166 19.42 37.9055 19.42 38.5166V40.5333C19.42 41.1444 19.6339 41.6333 20.0616 42C20.4894 42.3666 20.9478 42.55 21.4366 42.55H24.1866C24.4311 42.55 24.5533 42.7333 24.5533 43.1V45.6666C24.5533 46.2777 24.7672 46.7666 25.195 47.1333C25.6228 47.5 26.0811 47.6833 26.57 47.6833H28.77C29.2589 47.6833 29.7172 47.5 30.145 47.1333C30.5728 46.7666 30.7866 46.2777 30.7866 45.6666V43.1C30.7866 42.7333 30.9089 42.55 31.1533 42.55H33.9033C34.3922 42.55 34.8505 42.3666 35.2783 42C35.7061 41.6333 35.92 41.1444 35.92 40.5333V38.5166C35.92 37.9055 35.7061 37.4166 35.2783 37.05C34.8505 36.6833 34.3922 36.5 33.9033 36.5H31.1533C30.9089 36.5 30.7866 36.3166 30.7866 35.95V33.3833C30.7866 32.7722 30.5728 32.2833 30.145 31.9166C29.7172 31.55 29.2589 31.3666 28.77 31.3666ZM31.1533 37.9666H33.9033C34.1478 37.9666 34.27 38.15 34.27 38.5166V40.5333C34.27 40.7777 34.1478 40.9 33.9033 40.9H31.1533C30.6644 40.9 30.2061 41.1138 29.7783 41.5416C29.3505 41.9694 29.1367 42.4888 29.1367 43.1V45.6666C29.1367 45.9111 29.0144 46.0333 28.77 46.0333H26.57C26.3255 46.0333 26.2033 45.9111 26.2033 45.6666V43.1C26.2033 42.4888 25.9894 41.9694 25.5616 41.5416C25.1339 41.1138 24.6755 40.9 24.1866 40.9H21.4366C21.1922 40.9 21.07 40.7777 21.07 40.5333V38.5166C21.07 38.15 21.1922 37.9666 21.4366 37.9666H24.1866C24.6755 37.9666 25.1339 37.7833 25.5616 37.4166C25.9894 37.05 26.2033 36.5611 26.2033 35.95V33.3833C26.2033 33.0166 26.3255 32.8333 26.57 32.8333H28.77C29.0144 32.8333 29.1367 33.0166 29.1367 33.3833V35.95C29.1367 36.5611 29.3505 37.05 29.7783 37.4166C30.2061 37.7833 30.6644 37.9666 31.1533 37.9666ZM50.77 18.1666H45.0867L50.0367 10.0999C50.8922 10.3444 51.6255 10.4666 52.2367 10.4666C53.4589 10.4666 54.345 10.0388 54.895 9.18328C55.445 8.32773 55.3228 7.22773 54.5283 5.88328C53.7339 4.53884 52.6033 3.31662 51.1367 2.21662C49.67 1.11662 48.1422 0.444393 46.5533 0.199951C44.9644 -0.0444946 43.8644 0.322174 43.2533 1.29995C42.8867 1.91106 42.7644 2.61384 42.8867 3.40828C43.0089 4.20273 43.4366 5.02773 44.17 5.88328L34.6367 18.1666H30.7866C31.6422 17.1888 32.4366 16.15 33.17 15.0499C33.6589 14.0722 34.0867 13.1555 34.4533 12.2999C34.5755 12.0555 34.5755 11.8416 34.4533 11.6583C34.3311 11.4749 34.1783 11.3222 33.995 11.2C33.8116 11.0777 33.5978 11.0777 33.3533 11.2C33.1089 11.3222 32.9866 11.4444 32.9866 11.5666C32.62 12.5444 32.1922 13.4 31.7033 14.1333C30.8478 15.7222 29.8089 17.0666 28.5867 18.1666H24.5533L28.22 11.5666C28.3422 11.3222 28.3728 11.1083 28.3116 10.9249C28.2505 10.7416 28.1283 10.5888 27.945 10.4666C27.7617 10.3444 27.5783 10.3138 27.395 10.375C27.2117 10.4361 27.0589 10.5888 26.9366 10.8333L22.5366 18.1666H21.8033C21.9255 16.4555 21.7422 14.6833 21.2533 12.8499C21.62 11.5055 22.17 10.2222 22.9033 8.99995C24.1255 7.0444 25.5922 5.42495 27.3033 4.14162C29.0144 2.85828 30.8478 2.09439 32.8033 1.84995C32.9255 1.84995 33.0478 1.91106 33.17 2.03328C33.9033 3.86662 34.1478 5.88328 33.9033 8.08328C33.7811 8.32773 33.8116 8.54162 33.995 8.72495C34.1783 8.90828 34.3616 9.03051 34.545 9.09162C34.7283 9.15273 34.9117 9.09162 35.095 8.90828C35.2783 8.72495 35.37 8.57217 35.37 8.44995C35.7366 5.76106 35.4922 3.37773 34.6367 1.29995C34.3922 0.933285 34.0867 0.658283 33.72 0.474949C33.3533 0.291618 32.9866 0.199951 32.62 0.199951C30.42 0.444393 28.3422 1.29995 26.3867 2.76662C24.4311 4.23328 22.7811 6.06662 21.4366 8.26662C21.07 8.99995 20.7644 9.67217 20.52 10.2833C20.1533 9.67217 19.7866 8.99995 19.42 8.26662C18.1978 6.06662 16.5783 4.23328 14.5617 2.76662C12.545 1.29995 10.4978 0.444393 8.41998 0.199951C7.93109 0.199951 7.50332 0.291618 7.13665 0.474949C6.76998 0.658283 6.52554 0.933285 6.40332 1.29995C5.54776 3.37773 5.24221 5.60828 5.48665 7.99162C5.73109 10.375 6.52554 12.7277 7.86998 15.0499C8.48109 16.15 9.21443 17.1888 10.07 18.1666H4.56998C3.34776 18.1666 2.30887 18.5944 1.45332 19.45C0.597761 20.3055 0.169983 21.2833 0.169983 22.3833C0.169983 23.4833 0.475538 24.4305 1.08665 25.225C1.69776 26.0194 2.49221 26.5388 3.46998 26.7833V30.6333C3.46998 33.2 3.95887 35.6444 4.93665 37.9666C5.05887 38.3333 5.30332 38.5166 5.66998 38.5166H6.03665C6.28109 38.3944 6.43387 38.2416 6.49498 38.0583C6.55609 37.875 6.52554 37.6611 6.40332 37.4166C5.42554 35.2166 4.93665 32.9555 4.93665 30.6333V26.9666H50.4033V30.6333C50.4033 32.9555 49.9144 35.1861 48.9366 37.325C47.9589 39.4638 46.6144 41.3277 44.9033 42.9166L41.0533 46.4C40.1978 47.2555 39.77 48.2333 39.77 49.3333V52.2666C39.77 52.6333 39.6478 52.9388 39.4033 53.1833C39.1589 53.4277 38.8533 53.55 38.4866 53.55H16.8533C16.4867 53.55 16.1811 53.4277 15.9367 53.1833C15.6922 52.9388 15.57 52.6333 15.57 52.2666V49.3333C15.57 48.2333 15.1422 47.2555 14.2866 46.4L10.4366 42.9166C9.58109 42.1833 8.84776 41.3888 8.23665 40.5333C8.11443 40.2888 7.93109 40.1666 7.68665 40.1666C7.44221 40.1666 7.22832 40.2277 7.04498 40.35C6.86165 40.4722 6.76998 40.625 6.76998 40.8083C6.76998 40.9916 6.83109 41.2055 6.95332 41.45C7.68665 42.4277 8.48109 43.3444 9.33665 44.2L13.1867 47.6833C13.6755 48.1722 13.92 48.7222 13.92 49.3333V52.2666C13.92 53.1222 14.2255 53.825 14.8366 54.375C15.4478 54.925 16.12 55.2 16.8533 55.2H38.4866C39.22 55.2 39.8922 54.925 40.5033 54.375C41.1144 53.825 41.42 53.1222 41.42 52.2666V49.3333C41.42 48.7222 41.6644 48.1722 42.1533 47.6833L46.0033 44.2C47.8367 42.3666 49.2728 40.2888 50.3116 37.9666C51.3505 35.6444 51.87 33.2 51.87 30.6333V26.7833C52.8478 26.5388 53.6422 26.0194 54.2533 25.225C54.8644 24.4305 55.17 23.4833 55.17 22.3833C55.17 21.2833 54.7422 20.3055 53.8867 19.45C53.0311 18.5944 51.9922 18.1666 50.77 18.1666ZM44.5367 2.21662C44.7811 1.84995 45.4533 1.75828 46.5533 1.94162C47.6533 2.12495 48.8755 2.67495 50.22 3.59162C51.5644 4.50828 52.5117 5.42495 53.0616 6.34162C53.6117 7.25828 53.7339 7.9305 53.4283 8.35828C53.1228 8.78606 52.42 8.90828 51.32 8.72495C50.22 8.54162 49.0283 7.99162 47.745 7.07495C46.4617 6.15828 45.545 5.21106 44.995 4.23328C44.445 3.2555 44.2922 2.58328 44.5367 2.21662ZM45.27 7.16662C45.7589 7.53328 46.2783 7.9305 46.8283 8.35828C47.3783 8.78606 47.9589 9.12217 48.57 9.36662L43.2533 18.1666H36.6533L45.27 7.16662ZM9.15332 14.1333C8.05332 12.1777 7.38109 10.0999 7.13665 7.89995C6.89221 5.69995 7.13665 3.7444 7.86998 2.03328C7.86998 1.91106 7.99221 1.84995 8.23665 1.84995C10.07 2.09439 11.8728 2.85828 13.645 4.14162C15.4172 5.42495 16.8533 7.0444 17.9533 8.99995C19.7866 12.0555 20.52 15.1111 20.1533 18.1666H18.32L14.1033 10.8333C13.9811 10.5888 13.7978 10.4361 13.5533 10.375C13.3089 10.3138 13.095 10.3444 12.9116 10.4666C12.7283 10.5888 12.6061 10.7416 12.545 10.9249C12.4839 11.1083 12.5144 11.3222 12.6367 11.5666L16.4867 18.1666H12.4533C11.1089 17.0666 10.0089 15.7222 9.15332 14.1333ZM50.77 25.5H4.56998C3.83665 25.5 3.19498 25.225 2.64498 24.6749C2.09498 24.125 1.81998 23.4527 1.81998 22.6583C1.81998 21.8638 2.09498 21.1916 2.64498 20.6416C3.19498 20.0916 3.83665 19.8166 4.56998 19.8166H50.77C51.5033 19.8166 52.145 20.0916 52.695 20.6416C53.245 21.1916 53.52 21.8638 53.52 22.6583C53.52 23.4527 53.245 24.125 52.695 24.6749C52.145 25.225 51.5033 25.5 50.77 25.5Z" fill="#9F9F9F"/>
</g>
<defs>
<clipPath id="clip0_37_3203">
<rect width="55.02" height="55" fill="white" transform="matrix(1 0 0 -1 0.159973 55.2)"/>
</clipPath>
</defs>
</svg>
