<svg width="56" height="56" viewBox="0 0 56 56" fill="none" xmlns="http://www.w3.org/2000/svg">
<path d="M45.66 21.65L44.7433 21.4666L42.91 20.9166V20.7333C42.91 18.9 42.4211 17.1277 41.4433 15.4166C42.4211 14.1944 43.2155 12.85 43.8267 11.3833L45.2933 8.26662C45.4156 7.89995 45.3544 7.5944 45.11 7.34995C44.8656 7.10551 44.56 7.0444 44.1933 7.16662L40.71 8.63329C39.3656 9.2444 38.1433 10.0388 37.0433 11.0166C35.8211 10.4055 34.5378 9.97773 33.1933 9.73329C33.0711 8.1444 32.7044 6.61662 32.0933 5.14995L30.81 1.66662C30.6878 1.29995 30.4128 1.11662 29.985 1.11662C29.5572 1.11662 29.2822 1.29995 29.16 1.66662L27.8767 5.14995C27.3878 6.61662 27.0211 8.1444 26.7767 9.73329H21.0933L19.26 8.63329L15.96 7.16662C15.5933 7.0444 15.2572 7.10551 14.9517 7.34995C14.6461 7.5944 14.5544 7.89995 14.6767 8.26662L15.96 11.0166C14.0044 11.9944 12.4461 13.4305 11.285 15.325C10.1239 17.2194 9.48222 19.2666 9.35999 21.4666L3.49333 34.3C3.37111 34.5444 3.40166 34.7888 3.58499 35.0333C3.76833 35.2777 3.98222 35.4 4.22666 35.4H9.35999V45.6666C9.35999 45.9111 9.45166 46.125 9.63499 46.3083C9.81833 46.4916 10.0322 46.5833 10.2767 46.5833H18.8933V53.55C18.8933 53.7944 18.985 53.9777 19.1683 54.1C19.3517 54.2222 19.5044 54.2833 19.6267 54.2833H37.7767C38.0211 54.2833 38.235 54.2222 38.4183 54.1C38.6017 53.9777 38.6933 53.7944 38.6933 53.55V41.6333L42.91 33.2V32.8333V24.2166L45.66 23.3C46.1489 23.1777 46.3933 22.9027 46.3933 22.475C46.3933 22.0472 46.1489 21.7722 45.66 21.65ZM41.26 20.55C39.7933 20.3055 38.3267 20.1222 36.86 20C37.7155 19.3888 38.51 18.7166 39.2433 17.9833L40.3433 16.8833C40.8322 18.1055 41.1378 19.3277 41.26 20.55ZM35.5767 12.1166C35.4544 12.1166 35.3933 12.1777 35.3933 12.3L33.3767 14.3166V11.5666C34.11 11.6888 34.8433 11.8722 35.5767 12.1166ZM26.5933 11.3833C26.5933 11.3833 26.5933 11.5055 26.5933 11.75L26.7767 14.3166L25.31 12.85C24.8211 12.3611 24.2711 11.8722 23.66 11.3833H26.5933ZM18.5267 10.2833C22.1933 11.8722 25.0044 14.3777 26.96 17.8L27.51 18.7166C27.7544 19.0833 28.0906 19.2055 28.5183 19.0833C28.9461 18.9611 29.16 18.6555 29.16 18.1666L28.7933 16.8833C27.9378 13.0944 28.1822 9.36662 29.5267 5.69995L30.0767 4.41662L30.6267 5.69995C31.9711 9.36662 32.1544 13.0944 31.1767 16.8833L30.81 18.35C30.81 18.7166 31.0239 18.9611 31.4517 19.0833C31.8794 19.2055 32.2155 19.0833 32.46 18.7166L33.01 17.8C35.0878 14.3777 37.8989 11.8722 41.4433 10.2833L42.7267 9.73329L42.36 10.65C41.26 12.9722 39.8544 15.05 38.1433 16.8833C37.1656 17.7388 36.1267 18.5333 35.0267 19.2666L33.9267 20.1833C33.56 20.4277 33.4378 20.7333 33.56 21.1C33.6822 21.4666 33.9267 21.65 34.2933 21.65C36.9822 21.65 39.6711 21.9555 42.36 22.5666H42.1767C38.9989 23.5444 35.76 23.6666 32.46 22.9333L30.26 22.5666H29.8933L27.6933 22.9333C24.3933 23.6666 21.1544 23.5444 17.9767 22.5666H17.7933C20.36 21.9555 22.9878 21.65 25.6767 21.65C26.1656 21.65 26.4711 21.4666 26.5933 21.1C26.7156 20.7333 26.5933 20.4277 26.2267 20.1833L25.1267 19.2666C24.0267 18.5333 22.9878 17.7388 22.01 16.8833C20.1767 15.05 18.7711 12.9722 17.7933 10.65L17.2433 9.73329L18.5267 10.2833ZM30.0767 25.6833C30.5655 26.9055 30.81 28.1277 30.81 29.35H29.16C29.2822 28.1277 29.5878 26.9055 30.0767 25.6833ZM37.0433 41.0833C36.9211 41.2055 36.86 41.3277 36.86 41.45V52.6333H20.5433V45.6666C20.5433 45.4222 20.4517 45.2388 20.2683 45.1166C20.085 44.9944 19.9322 44.9333 19.81 44.9333H11.1933V34.4833C11.1933 34.3611 11.1017 34.2083 10.9183 34.025C10.735 33.8416 10.5211 33.75 10.2767 33.75H5.50999L11.01 22.0166L11.1933 21.65C11.1933 19.6944 11.6822 17.8916 12.66 16.2416C13.6378 14.5916 14.9822 13.3388 16.6933 12.4833C17.7933 14.5611 19.1378 16.3944 20.7267 17.9833C21.46 18.7166 22.2544 19.3888 23.11 20C20.5433 20.2444 17.9767 20.7333 15.41 21.4666L14.31 21.65C13.9433 21.7722 13.76 22.0472 13.76 22.475C13.76 22.9027 13.9433 23.1777 14.31 23.3L17.4267 24.2166C20.9711 25.1944 24.5156 25.3777 28.06 24.7666L28.61 24.5833L28.4267 24.95C27.8155 26.6611 27.51 28.4333 27.51 30.2666C27.51 30.5111 27.5711 30.725 27.6933 30.9083C27.8155 31.0916 27.9989 31.1833 28.2433 31.1833H31.7267C31.9711 31.1833 32.185 31.0916 32.3683 30.9083C32.5517 30.725 32.6433 30.5111 32.6433 30.2666C32.6433 28.4333 32.2767 26.6611 31.5433 24.95L31.36 24.5833L32.0933 24.7666C33.56 25.0111 35.0572 25.1333 36.585 25.1333C38.1128 25.1333 39.6711 24.95 41.26 24.5833V32.65L37.0433 41.0833ZM9.35999 7.89995C10.3378 7.89995 11.1628 7.56384 11.835 6.89162C12.5072 6.2194 12.8433 5.42495 12.8433 4.50829C12.8433 3.59162 12.5072 2.79718 11.835 2.12495C11.1628 1.45273 10.3378 1.11662 9.35999 1.11662C8.38222 1.11662 7.58777 1.45273 6.97666 2.12495C6.36555 2.79718 6.05999 3.59162 6.05999 4.50829C6.05999 5.42495 6.36555 6.2194 6.97666 6.89162C7.58777 7.56384 8.38222 7.89995 9.35999 7.89995ZM9.35999 2.76662C9.84888 2.76662 10.2767 2.94995 10.6433 3.31662C11.01 3.68328 11.1933 4.08051 11.1933 4.50829C11.1933 4.93606 11.01 5.33329 10.6433 5.69995C10.2767 6.06662 9.84888 6.24995 9.35999 6.24995C8.87111 6.24995 8.47388 6.06662 8.16833 5.69995C7.86277 5.33329 7.70999 4.93606 7.70999 4.50829C7.70999 4.08051 7.86277 3.68328 8.16833 3.31662C8.47388 2.94995 8.87111 2.76662 9.35999 2.76662ZM49.8767 19.0833C50.7322 19.0833 51.4961 18.7472 52.1683 18.075C52.8405 17.4027 53.1767 16.6083 53.1767 15.6916C53.1767 14.775 52.8405 13.9805 52.1683 13.3083C51.4961 12.6361 50.7017 12.3 49.785 12.3C48.8683 12.3 48.0739 12.6361 47.4017 13.3083C46.7294 13.9805 46.3933 14.775 46.3933 15.6916C46.3933 16.6083 46.7294 17.4027 47.4017 18.075C48.0739 18.7472 48.8989 19.0833 49.8767 19.0833ZM49.8767 13.95C50.2433 13.95 50.61 14.1027 50.9767 14.4083C51.3433 14.7138 51.5267 15.1111 51.5267 15.6C51.5267 16.0888 51.3433 16.5166 50.9767 16.8833C50.61 17.25 50.2128 17.4333 49.785 17.4333C49.3572 17.4333 48.96 17.25 48.5933 16.8833C48.2267 16.5166 48.0433 16.0888 48.0433 15.6C48.0433 15.1111 48.2267 14.7138 48.5933 14.4083C48.96 14.1027 49.3878 13.95 49.8767 13.95ZM37.7767 7.89995C38.7544 7.89995 39.5794 7.56384 40.2517 6.89162C40.9239 6.2194 41.26 5.42495 41.26 4.50829C41.26 3.59162 40.9239 2.79718 40.2517 2.12495C39.5794 1.45273 38.7544 1.11662 37.7767 1.11662C36.7989 1.11662 35.9739 1.45273 35.3017 2.12495C34.6294 2.79718 34.2933 3.59162 34.2933 4.50829C34.2933 5.42495 34.6294 6.2194 35.3017 6.89162C35.9739 7.56384 36.7989 7.89995 37.7767 7.89995ZM37.7767 2.76662C38.2656 2.76662 38.6628 2.94995 38.9683 3.31662C39.2739 3.68328 39.4267 4.08051 39.4267 4.50829C39.4267 4.93606 39.2739 5.33329 38.9683 5.69995C38.6628 6.06662 38.2656 6.24995 37.7767 6.24995C37.2878 6.24995 36.8906 6.06662 36.585 5.69995C36.2794 5.33329 36.1267 4.93606 36.1267 4.50829C36.1267 4.08051 36.2794 3.68328 36.585 3.31662C36.8906 2.94995 37.2878 2.76662 37.7767 2.76662ZM49.8767 26.7833C48.8989 26.7833 48.0739 27.1194 47.4017 27.7916C46.7294 28.4638 46.3933 29.2888 46.3933 30.2666C46.3933 31.2444 46.7294 32.0694 47.4017 32.7416C48.0739 33.4138 48.8683 33.75 49.785 33.75C50.7017 33.75 51.4961 33.4138 52.1683 32.7416C52.8405 32.0694 53.1767 31.2444 53.1767 30.2666C53.1767 29.2888 52.8405 28.4638 52.1683 27.7916C51.4961 27.1194 50.7322 26.7833 49.8767 26.7833ZM49.8767 31.9166C49.3878 31.9166 48.96 31.7638 48.5933 31.4583C48.2267 31.1527 48.0433 30.7555 48.0433 30.2666C48.0433 29.7777 48.2267 29.3805 48.5933 29.075C48.96 28.7694 49.3572 28.6166 49.785 28.6166C50.2128 28.6166 50.61 28.7694 50.9767 29.075C51.3433 29.3805 51.5267 29.7777 51.5267 30.2666C51.5267 30.7555 51.3433 31.1527 50.9767 31.4583C50.61 31.7638 50.2433 31.9166 49.8767 31.9166ZM6.79333 19.0833C6.79333 18.1055 6.45722 17.2805 5.78499 16.6083C5.11277 15.9361 4.31833 15.6 3.40166 15.6C2.48499 15.6 1.69055 15.9361 1.01833 16.6083C0.346106 17.2805 0.00999451 18.1055 0.00999451 19.0833C0.00999451 20.0611 0.346106 20.8861 1.01833 21.5583C1.69055 22.2305 2.48499 22.5666 3.40166 22.5666C4.31833 22.5666 5.11277 22.2305 5.78499 21.5583C6.45722 20.8861 6.79333 20.0611 6.79333 19.0833ZM3.30999 20.7333C2.94333 20.7333 2.57666 20.5805 2.20999 20.275C1.84333 19.9694 1.65999 19.5722 1.65999 19.0833C1.65999 18.5944 1.84333 18.1972 2.20999 17.8916C2.57666 17.5861 2.97388 17.4333 3.40166 17.4333C3.82944 17.4333 4.22666 17.5861 4.59333 17.8916C4.95999 18.1972 5.14333 18.5944 5.14333 19.0833C5.14333 19.5722 4.95999 19.9694 4.59333 20.275C4.22666 20.5805 3.79888 20.7944 3.30999 20.9166V20.7333Z" fill="#9F9F9F"/>
</svg>
