<svg width="56" height="56" viewBox="0 0 56 56" fill="none" xmlns="http://www.w3.org/2000/svg">
<g clip-path="url(#clip0_37_3174)">
<path d="M20.7033 5.51662L11.17 8.08329C9.09221 8.57217 7.28943 9.54995 5.76165 11.0166C4.23387 12.4833 3.10332 14.2555 2.36998 16.3333C2.00332 17.5555 1.81998 18.7777 1.81998 20V21.65C1.81998 24.4611 1.54498 27.3027 0.994983 30.175C0.444983 33.0472 0.169983 35.95 0.169983 38.8833V54.2833H1.81998V38.8833C1.81998 36.0722 2.09498 33.2305 2.64498 30.3583C3.19498 27.4861 3.46998 24.5833 3.46998 21.65V20C3.46998 18.9 3.65332 17.8611 4.01998 16.8833C4.63109 15.05 5.60887 13.5222 6.95332 12.3C8.29776 11.0777 9.88665 10.2222 11.72 9.73329L21.8033 6.98329C22.2922 6.86106 22.5366 6.61662 22.5366 6.24995V1.11662H20.7033V5.51662ZM14.6533 54.2833V48.2333C14.6533 42.4888 13.5533 37.05 11.3533 31.9166V31.3666C11.3533 29.4111 11.0478 27.5166 10.4366 25.6833L8.78665 26.2333C9.27554 27.8222 9.51998 29.5333 9.51998 31.3666V31.9166C8.41998 37.6611 7.68665 43.4666 7.31998 49.3333L6.95332 54.2833L8.78665 54.4666L8.96998 49.3333C9.33665 44.5666 9.94776 39.8 10.8033 35.0333C12.27 39.3111 13.0033 43.7111 13.0033 48.2333V54.2833H14.6533ZM15.9367 25.6833C17.6478 25.1944 19.0228 24.2472 20.0616 22.8416C21.1005 21.4361 21.62 19.8777 21.62 18.1666H19.97C19.8478 19.5111 19.3894 20.7333 18.595 21.8333C17.8005 22.9333 16.7922 23.6666 15.57 24.0333L14.47 24.2166L15.02 25.8666L15.9367 25.6833ZM51.6866 21.65V20C51.6866 18.7777 51.5033 17.5555 51.1367 16.3333C50.4033 14.2555 49.2728 12.4833 47.745 11.0166C46.2172 9.54995 44.4144 8.57217 42.3367 8.08329L32.8033 5.51662V1.11662H30.97V6.24995C30.97 6.61662 31.2144 6.86106 31.7033 6.98329L41.7867 9.73329C43.62 10.2222 45.2089 11.0777 46.5533 12.3C47.8978 13.5222 48.8755 15.05 49.4867 16.8833C49.8533 17.8611 50.0367 18.9 50.0367 20V21.65C50.0367 24.5833 50.3116 27.4861 50.8617 30.3583C51.4117 33.2305 51.6866 36.0722 51.6866 38.8833V54.2833H53.3367V38.8833C53.3367 35.95 53.0616 33.0472 52.5117 30.175C51.9617 27.3027 51.6866 24.4611 51.6866 21.65ZM44.72 26.2333L43.07 25.6833C42.4589 27.5166 42.1533 29.4111 42.1533 31.3666V31.9166C39.9533 37.05 38.8533 42.4888 38.8533 48.2333V54.2833H40.5033V48.2333C40.5033 43.7111 41.2366 39.3111 42.7033 35.0333C43.5589 39.8 44.17 44.5666 44.5367 49.3333L44.72 54.4666L46.5533 54.2833L46.1866 49.3333C45.82 43.4666 45.0867 37.6611 43.9867 31.9166V31.3666C43.9867 29.5333 44.2311 27.8222 44.72 26.2333ZM33.72 18.1666H31.8867C31.8867 19.8777 32.4061 21.4361 33.445 22.8416C34.4839 24.2472 35.8589 25.1944 37.57 25.6833L38.4866 25.8666L39.0367 24.2166L37.9366 24.0333C36.7144 23.6666 35.7061 22.9333 34.9117 21.8333C34.1172 20.7333 33.6589 19.5111 33.5367 18.1666H33.72ZM26.7533 49.15C27.4867 49.15 28.0978 48.9055 28.5867 48.4166C29.0755 47.9277 29.32 47.3166 29.32 46.5833C29.32 45.85 29.0755 45.2388 28.5867 44.75C28.0978 44.2611 27.4867 44.0166 26.7533 44.0166C26.02 44.0166 25.4089 44.2611 24.92 44.75C24.4311 45.2388 24.1866 45.85 24.1866 46.5833C24.1866 47.3166 24.4311 47.9277 24.92 48.4166C25.4089 48.9055 26.02 49.15 26.7533 49.15ZM26.7533 45.6666C26.9978 45.6666 27.2117 45.7583 27.395 45.9416C27.5783 46.125 27.67 46.3388 27.67 46.5833C27.67 46.8277 27.5783 47.0416 27.395 47.225C27.2117 47.4083 26.9978 47.5 26.7533 47.5C26.5089 47.5 26.295 47.4083 26.1117 47.225C25.9283 47.0416 25.8367 46.8277 25.8367 46.5833C25.8367 46.3388 25.9283 46.125 26.1117 45.9416C26.295 45.7583 26.5089 45.6666 26.7533 45.6666ZM20.7033 46.5833C20.7033 48.2944 21.2839 49.7305 22.445 50.8916C23.6061 52.0527 25.0422 52.6333 26.7533 52.6333C28.4644 52.6333 29.9005 52.0527 31.0616 50.8916C32.2228 49.7305 32.8033 48.325 32.8033 46.675C32.8033 45.025 32.2228 43.5888 31.0616 42.3666C29.9005 41.1444 28.4644 40.5333 26.7533 40.5333C25.0422 40.5333 23.6061 41.1444 22.445 42.3666C21.2839 43.5888 20.7033 44.9944 20.7033 46.5833ZM26.7533 42.3666C27.9755 42.3666 28.9839 42.7638 29.7783 43.5583C30.5728 44.3527 30.97 45.3611 30.97 46.5833C30.97 47.8055 30.5728 48.8444 29.7783 49.7C28.9839 50.5555 27.9755 50.9833 26.7533 50.9833C25.5311 50.9833 24.5228 50.5555 23.7283 49.7C22.9339 48.8444 22.5366 47.8055 22.5366 46.5833C22.5366 45.3611 22.9339 44.3527 23.7283 43.5583C24.5228 42.7638 25.5311 42.3666 26.7533 42.3666ZM30.2367 36.3166C30.2367 36.6833 30.42 36.9277 30.7866 37.05L33.5367 38.3333L31.3367 39.9833L32.4366 41.2666L35.92 38.7C36.1644 38.4555 36.2561 38.1805 36.195 37.875C36.1339 37.5694 35.9811 37.3555 35.7366 37.2333L32.9866 36.1333L35.7366 34.4833L34.82 33.0166L30.6033 35.5833C30.3589 35.7055 30.2367 35.95 30.2367 36.3166ZM22.9033 35.5833L18.6866 33.0166L17.77 34.4833L20.52 36.1333L17.77 37.2333C17.5255 37.3555 17.3728 37.5694 17.3116 37.875C17.2505 38.1805 17.3422 38.4555 17.5867 38.7L21.07 41.2666L22.17 39.9833L19.97 38.3333L22.72 37.05C23.0867 36.9277 23.27 36.6833 23.27 36.3166C23.27 35.95 23.1478 35.7055 22.9033 35.5833ZM25.8367 23.4833H27.67V31.1833H25.8367V23.4833Z" fill="#9F9F9F"/>
</g>
<defs>
<clipPath id="clip0_37_3174">
<rect width="55.02" height="55" fill="white" transform="matrix(1 0 0 -1 0.159973 55.2)"/>
</clipPath>
</defs>
</svg>
