<?xml version="1.0" encoding="utf-8"?>
<!-- Generator: Adobe Illustrator 28.4.1, SVG Export Plug-In . SVG Version: 6.00 Build 0)  -->
<svg version="1.1" id="Слой_1" xmlns="http://www.w3.org/2000/svg" xmlns:xlink="http://www.w3.org/1999/xlink" x="0px" y="0px"
	 viewBox="0 0 595.28 841.89" style="enable-background:new 0 0 595.28 841.89;" xml:space="preserve">
<style type="text/css">
	.st0{fill:#1C4E9D;}
</style>
<g id="simple_logo_00000087373412176782924690000005526360904502235565_">
	<g>
		<path class="st0" d="M372.67,520.63c-4.9,0-9.41-2.31-11.93-6.25c-2.62-4.09-2.11-8.44-1.77-10.12c0.03-0.14,0.06-0.28,0.11-0.41
			c1.54-4.79,3.91-9.21,7.03-13.12c1.56-1.96,3.31-3.77,5.22-5.42c-1.31-0.47-2.67-1.11-4.04-1.97c-5.34-3.35-7.84-8.11-8.86-10.65
			c-0.05-0.12-0.09-0.24-0.13-0.37c-1.49-5.2-2.05-10.52-1.67-15.83c-0.07,0.06-0.14,0.11-0.21,0.17c-4.13,3.23-8.7,5.92-13.57,7.99
			c-1.93,0.82-4.15-0.08-4.97-2.01c-0.82-1.93,0.08-4.15,2.01-4.97c4.26-1.81,8.25-4.16,11.85-6.98
			c8.07-6.32,12.53-15.12,14.67-19.34c0.88-1.74,2.95-2.53,4.77-1.82c1.82,0.71,2.8,2.69,2.26,4.57c-0.54,1.9-1.7,3.82-3.04,6.06
			c-2.44,4.06-5.48,9.12-6.13,15.96c-0.44,4.66-0.01,9.34,1.27,13.93c0.72,1.72,2.38,4.74,5.79,6.88c3.6,2.26,7.2,2.13,9.34,2.05
			c0.62-0.02,1.16-0.04,1.67,0c1.71,0.13,3.12,1.39,3.44,3.07s-0.53,3.37-2.07,4.12c-4.52,2.2-8.56,5.41-11.67,9.3
			c-2.5,3.13-4.41,6.66-5.67,10.49c-0.15,0.88-0.28,2.72,0.76,4.34c1.29,2.01,3.87,3.05,6.63,2.68
			c21.76-6.76,41.25-32.38,43.52-57.27c1.76-19.37-6.22-34.89-11.14-42.42c-0.76-1.16-0.82-2.63-0.17-3.85
			c0.65-1.22,1.91-1.99,3.29-2.01l0.59-0.01c1.44-0.05,3.42-0.1,5.56,0.69c2.01,0.75,3.26,1.52,4.36,2.19
			c1.26,0.77,2.35,1.44,4.92,2.18c7.11,1.5,14.33-1.01,18.41-6.4c4.66-6.16,4.23-11.61,3.21-13.95c-2.59-4.69-4.38-9.72-5.31-14.96
			c-1.18-6.67-0.64-10.24,0.04-14.76c0.25-1.64,0.51-3.34,0.72-5.44c0.02-0.18,0.05-0.36,0.09-0.53c0.17-0.7,0.2-5.25-3.78-10.07
			c-3.87-4.68-6.5-5.82-9.28-6.68c-0.41-0.1-0.86-0.21-1.35-0.34c-2.8-0.71-7.04-1.8-12.38-1.7c-8.53,0.15-11.38,2.04-12.21,2.85
			c-0.06,0.06-0.12,0.11-0.18,0.17c-1.29,1.11-2.26,2.59-3.38,4.3c-1.06,1.62-2.26,3.46-3.95,5.28c-4.22,4.54-9.03,8.53-14.28,11.87
			c-0.06,0.04-0.11,0.07-0.17,0.1c-1.74,0.98-3.25,1.55-4.59,2.05c-2.22,0.84-3.45,1.3-4.97,3.23c-2.75,3.47-3.21,8.59-1.16,12.77
			c0.36,0.66,0.71,1.38,1.08,2.14c1.35,2.79,3.04,6.26,6.54,9.41c7.42,6.68,16.8,6.23,19.5,5.93c2-0.22,3.82,1.16,4.15,3.14
			c0.33,1.98-0.95,3.88-2.91,4.32l-0.81,0.18c-3.74,0.82-9.38,2.07-14.41,5.5c-5.26,3.6-7.96,7.83-8.87,9.48
			c-1.01,1.83-3.32,2.49-5.15,1.48c-1.83-1.01-2.49-3.32-1.48-5.15c1.46-2.64,4.86-7.72,11.23-12.07c0.87-0.59,1.74-1.13,2.62-1.62
			c-3-1.21-6.07-2.98-8.94-5.56c-4.61-4.14-6.83-8.71-8.29-11.73c-0.34-0.69-0.64-1.32-0.94-1.86c-0.03-0.05-0.05-0.1-0.08-0.15
			c-3.37-6.76-2.57-15.17,1.97-20.91c2.83-3.58,5.71-4.66,8.24-5.62c1.16-0.44,2.26-0.85,3.46-1.52c4.67-2.98,8.95-6.54,12.71-10.58
			c1.24-1.34,2.17-2.76,3.15-4.26c1.3-1.99,2.64-4.04,4.71-5.84c3.28-3.12,9.09-4.77,17.27-4.91c6.35-0.11,11.37,1.17,14.37,1.93
			c0.49,0.13,0.94,0.24,1.34,0.33c0.08,0.02,0.17,0.04,0.25,0.07c4.4,1.35,8.3,3.42,13.02,9.13c5.54,6.71,5.95,13.48,5.36,16.42
			c-0.23,2.18-0.5,3.99-0.75,5.59c-0.63,4.13-1.04,6.86-0.07,12.31c0.79,4.46,2.32,8.75,4.55,12.74c0.05,0.08,0.09,0.17,0.13,0.26
			c2.19,4.74,2.46,13.29-3.99,21.82c-5.88,7.78-16.16,11.39-26.18,9.21c-0.08-0.02-0.16-0.04-0.23-0.06
			c-2.54-0.72-4.15-1.46-5.42-2.15c4.59,9.37,8.96,22.88,7.52,38.75c-2.58,28.26-24.16,56.34-49.13,63.92
			c-0.16,0.05-0.33,0.09-0.5,0.12C374.35,520.57,373.5,520.63,372.67,520.63z"/>
	</g>
	<g>
		<path class="st0" d="M225.35,533.98c-0.73,0-1.47-0.05-2.21-0.16c-0.17-0.02-0.34-0.06-0.5-0.1
			c-25.12-7.08-47.25-34.72-50.39-62.93c-1.81-16.26,2.57-30.15,7.1-39.64c-0.42,0.25-0.84,0.51-1.24,0.76
			c-1.4,0.87-2.85,1.78-4.54,2.26c-0.06,0.02-0.12,0.03-0.17,0.05c-9.98,2.37-20.33-1.04-26.36-8.69
			c-6.62-8.4-6.52-16.96-4.43-21.74c0.04-0.09,0.08-0.17,0.13-0.26c2.15-4.03,3.59-8.35,4.29-12.82c1.13-7.23,0.17-11.69-0.95-16.86
			l-0.17-0.79c-1.03-3.8-0.25-10.15,4.98-16.75c4.12-5.19,7.77-7.25,11-9.06c0.41-0.23,0.82-0.46,1.23-0.7
			c0.05-0.03,0.09-0.05,0.14-0.08c6.2-3.24,11.91-4.82,17.46-4.83c0.03,0,0.06,0,0.09,0c5.21,0,17.62,1.26,22.19,5.03
			c3.38,2.14,5.4,4.89,7.18,7.32c0.92,1.26,1.8,2.45,2.8,3.49c3.63,3.75,6.93,5.67,10.12,7.52c0.68,0.4,1.36,0.79,2.02,1.19
			c0.4,0.16,1.02,0.34,1.66,0.52c2.85,0.82,7.15,2.05,10.47,6.66c4.55,6.33,5.65,14.38,2.85,20.63c-1,3.26-4.06,8.74-9.65,13.97
			c-3.6,3.37-7.4,5.91-10.93,7.75c1.95,0.81,3.95,1.83,5.9,3.11c5.43,3.55,11.84,11.1,13.18,17.58c0.42,2.05-0.9,4.06-2.95,4.48
			c-2.05,0.42-4.06-0.9-4.48-2.95c-0.78-3.8-5.51-9.89-9.91-12.77c-5.09-3.33-10.76-4.47-14.51-5.22l-0.81-0.16
			c-1.97-0.4-3.29-2.27-2.99-4.26c0.29-1.95,2.03-3.34,3.98-3.23c1.8-0.08,10.66-2.68,18.33-9.86c4.6-4.3,7.07-8.8,7.62-10.77
			c0.06-0.21,0.13-0.42,0.23-0.61c2.2-4.65,0.29-10.04-2.02-13.25c-1.77-2.47-4.02-3.11-6.4-3.79c-1.02-0.29-1.99-0.57-2.91-1
			c-0.13-0.06-0.25-0.13-0.38-0.2c-0.7-0.42-1.4-0.83-2.12-1.25c-3.47-2.02-7.4-4.31-11.76-8.8c-1.37-1.41-2.44-2.87-3.47-4.28
			c-1.62-2.21-3.02-4.12-5.29-5.5c-0.22-0.14-0.43-0.29-0.62-0.47c-1.47-1.28-10.09-3.31-17.41-3.28
			c-6.32,0.02-11.96,2.92-13.9,3.94c-0.41,0.24-0.82,0.47-1.23,0.7c-2.87,1.61-5.58,3.14-8.77,7.16c-3.77,4.75-4,8.68-3.59,10.09
			c0.02,0.08,0.04,0.16,0.06,0.24l0.19,0.89c1.17,5.41,2.38,11.01,1.03,19.63c-0.82,5.26-2.51,10.33-5.01,15.06
			c-0.97,2.36-1.29,7.82,3.48,13.89c4.19,5.32,11.46,7.68,18.55,6.04c0.67-0.21,1.59-0.79,2.57-1.39c1.79-1.12,4.03-2.51,7.04-3.3
			c2.25-0.59,4.12-0.65,5.7-0.66c0.01,0,0.01,0,0.02,0c1.37,0,2.64,0.74,3.31,1.94c0.67,1.21,0.64,2.68-0.1,3.86
			c-4.77,7.62-12.44,23.3-10.29,42.63c2.76,24.84,22.76,50.07,44.65,56.39c2.76,0.31,5.33-0.78,6.57-2.81
			c1.01-1.65,0.84-3.48,0.67-4.36c-1.34-3.8-3.31-7.29-5.87-10.37c-3.18-3.83-7.28-6.96-11.85-9.07c-1.56-0.72-2.44-2.39-2.15-4.08
			s1.67-2.98,3.38-3.14c0.51-0.05,1.04-0.04,1.66-0.03c2.15,0.04,5.75,0.1,9.3-2.24c3.36-2.21,4.97-5.26,5.65-6.99
			c0.93-3.57,1.86-8.33,1.01-13.8c-0.69-4.46-3.65-9.49-6.02-13.54c-1.6-2.73-2.99-5.09-3.61-7.09c-0.58-1.87,0.36-3.87,2.17-4.62
			c1.8-0.75,3.88,0,4.8,1.72c2.23,4.2,11.93,15.24,21.57,16.35c2.08,0.24,3.57,2.12,3.33,4.2c-0.24,2.08-2.12,3.57-4.2,3.33
			c-3.93-0.45-7.67-1.95-11.06-3.97c0.21,0.81,0.39,1.63,0.52,2.46c1.08,6.96-0.09,12.79-1.23,17.09c-0.03,0.13-0.07,0.25-0.12,0.37
			c-0.97,2.56-3.37,7.36-8.65,10.83c-1.35,0.89-2.7,1.55-4,2.05c1.94,1.61,3.73,3.39,5.33,5.31c3.2,3.85,5.65,8.21,7.29,12.98
			c0.05,0.14,0.09,0.27,0.12,0.41c0.37,1.67,0.96,6.02-1.57,10.15C234.98,531.57,230.37,533.98,225.35,533.98z M206.97,412.32
			c0.02,0,0.04,0,0.07,0.01C207.02,412.32,207,412.32,206.97,412.32z"/>
	</g>
	<g>
		<path class="st0" d="M259.83,537.36c-2.53,0-4.99-0.41-7.16-1.37c-0.09-0.04-0.18-0.08-0.27-0.13c-5.62-3.03-8.03-9.44-6.75-13.53
			c0.89-2.87,1.95-4.37,3.83-6.46c2.84-3.08,6.45-8.2,7.72-15.28c0.57-3.19,0.6-6.46,0.1-9.71c-1.32-4.55-2.92-13.43,0.49-23.49
			c1.03-3.04,2.35-5.71,3.8-8.02c-1.56,0.07-3.21,0.01-4.93-0.21c-5.57-0.73-10.98-3.19-15.24-6.94c-1.57-1.38-1.72-3.78-0.34-5.35
			c1.38-1.57,3.78-1.72,5.35-0.34c1.82,1.6,5.69,4.39,11.22,5.11c6.29,0.82,11.21-1.42,13.58-2.83c1.72-1.02,3.94-0.53,5.07,1.12
			c1.13,1.65,0.78,3.9-0.8,5.13c-2.8,2.18-7.88,6.99-10.52,14.77c-2.8,8.26-1.41,15.54-0.33,19.14c0.05,0.16,0.08,0.32,0.11,0.48
			c0.68,4.18,0.65,8.38-0.08,12.49c-1.58,8.88-6.08,15.27-9.58,19.06c-1.31,1.45-1.71,2.03-2.2,3.61c-0.11,0.58,0.6,3.17,2.98,4.53
			c3.32,1.37,9.37,0.54,14.16-1.96c14.9-7.79,16.13-21.52,16.66-27.39c0.07-0.82,0.13-1.46,0.22-2c0.35-2.06,2.31-3.45,4.37-3.1
			c2.06,0.35,3.45,2.31,3.1,4.37c-0.04,0.24-0.09,0.84-0.15,1.41c-0.53,5.87-2.13,23.72-20.7,33.43
			C269.71,535.88,264.64,537.36,259.83,537.36z"/>
	</g>
	<g>
		<path class="st0" d="M322.12,534.29c-3.01,0-7.58-0.62-12.73-2.57c-6.22-2.35-12.47-10.94-11.52-18.93
			c0.25-2.08,2.13-3.57,4.21-3.32c2.08,0.25,3.56,2.13,3.32,4.21c-0.52,4.37,3.73,9.83,6.67,10.94c5.63,2.12,9.95,2.17,11,2.06
			c0,0,0.01,0,0.01,0c0.76-0.19,1.56-0.34,2.39-0.49c3.15-0.59,6.13-1.14,9.6-4.51c1.38-1.33,2.5-4.01,1.93-6
			c-0.63-2.2-3.43-3.22-5.66-3.69c-1.29-0.27-2.33-0.42-3.33-0.56c-2.34-0.33-4.54-0.64-8.43-2.22c-1.45-0.59-2.39-2.01-2.36-3.58
			c0.03-1.57,1.02-2.95,2.49-3.49c3.06-1.11,5.9-7.18,6.95-14.8c0.08-6.28-0.26-8.72-1.52-16.76c-1.6-10.24-10.8-15.05-11.84-15.56
			c-1.7-0.84-2.52-2.81-1.91-4.61c0.61-1.8,2.45-2.87,4.31-2.51c4.64,0.9,11.81,1.31,19.63-1.85c9.9-4,15.17-11.46,17.43-15.56
			c1.01-1.83,3.32-2.5,5.15-1.49c1.83,1.01,2.5,3.32,1.49,5.15c-2.74,4.97-9.15,14.04-21.22,18.92c-4.16,1.68-8.17,2.54-11.83,2.87
			c2.83,3.32,5.4,7.77,6.29,13.46c1.33,8.46,1.7,11.22,1.6,18.26c0,0.15-0.01,0.3-0.03,0.44c-0.38,2.87-1.69,10.37-5.41,15.78
			c0.09,0.01,0.18,0.02,0.27,0.04c1.08,0.15,2.3,0.32,3.84,0.65c7.72,1.63,10.45,5.79,11.38,9c1.51,5.23-0.98,10.69-3.93,13.55
			c-5.11,4.95-9.95,5.86-13.48,6.52c-0.69,0.13-1.35,0.25-1.98,0.4l0-0.01C324.23,534.2,323.29,534.29,322.12,534.29z
			 M322.57,526.86C322.56,526.86,322.56,526.86,322.57,526.86C322.56,526.86,322.56,526.86,322.57,526.86z M322.57,526.86
			L322.57,526.86L322.57,526.86z"/>
	</g>
	<g>
		<path class="st0" d="M278.89,444.82c-0.25,0-0.5-0.02-0.75-0.07c-2.05-0.41-3.38-2.41-2.97-4.46c0.74-3.7,3.64-8.07,7.78-11.1
			c-0.65-0.19-1.38-0.35-2.2-0.47c-1.96-0.29-4.64-0.01-7.16,0.75c-0.19,0.06-6.25,1.96-12.38-1.36c-2.53-1.38-5.83-4.33-7.14-10.62
			l-0.03-0.15c-0.01-0.06-0.02-0.07-0.03-0.13c-0.33-1.61-1.14-7.29,2.56-12.59c2.51-3.6,4.44-4.6,6.31-5.58
			c0.63-0.33,1.22-0.64,1.92-1.09c0.04-0.02,0.07-0.04,0.11-0.07c1.91-1.14,5.48-3.25,8.72-9.49c0.91-1.76,1.31-3.11,1.77-4.68
			c0.63-2.17,1.35-4.63,3.48-7.91c0.05-0.08,0.1-0.15,0.16-0.22c3.13-4.15,8.7-9.78,17.48-13.06c8.05-3.02,15.35-2.72,20.06-1.94
			c4.31,0.68,10.72,2.58,16.64,7.81c7.06,6.24,9.53,13.87,10.37,17.86c0.23,1.25,0.32,2.45,0.41,3.73c0.2,2.76,0.44,6.2,2.2,10.89
			c0.69,1.83,1.66,3.17,2.7,4.59c1.93,2.64,4.11,5.63,4.21,11.23c0.18,8.01-3.2,13.09-11.67,17.5c-18.44,9.62-38.19,3.69-38.37,3.62
			c-1.97-0.72-2.97-2.9-2.25-4.86c0.72-1.97,2.9-2.97,4.86-2.25c0.11,0.04,16.94,4.76,32.26-3.23c7.19-3.75,7.68-6.77,7.59-10.63
			c-0.06-3.22-1.13-4.69-2.76-6.91c-1.23-1.69-2.63-3.6-3.68-6.4c-2.14-5.71-2.44-9.93-2.66-13.01c-0.08-1.1-0.15-2.05-0.28-2.79
			c-0.63-2.99-2.54-8.86-7.96-13.66c-4.55-4.02-9.48-5.49-12.83-6.01c-3.83-0.63-9.71-0.87-16.2,1.56
			c-6.99,2.62-11.46,7.09-14,10.42c-1.46,2.28-1.92,3.84-2.49,5.8c-0.5,1.7-1.06,3.63-2.31,6.05c-4.21,8.1-9.3,11.17-11.53,12.49
			c-0.96,0.61-1.78,1.04-2.45,1.39c-1.48,0.77-2.15,1.12-3.6,3.2c-1.94,2.77-1.55,5.75-1.36,6.67c0.02,0.08,0.04,0.19,0.07,0.31
			c0.21,1.03,0.87,4.17,3.34,5.51c3.14,1.71,6.48,0.79,6.51,0.78c3.64-1.1,7.45-1.46,10.51-1.01c5.95,0.88,9.18,3.38,11.55,5.71
			c0.99,0.97,1.37,2.4,0.99,3.74s-1.45,2.36-2.8,2.66c-4.61,1.05-8.47,5.78-9.01,8.44C282.25,443.57,280.66,444.82,278.89,444.82z"
			/>
	</g>
	<g>
		<path class="st0" d="M265.73,387.79c-3.7,0-8.02-0.69-10.27-2.08c-8.55-5.3-13.17-12.65-13.02-20.7c0-0.2,0.02-0.4,0.06-0.6
			c0.42-2.35,1.1-4.16,1.75-5.91c0.74-1.99,1.39-3.72,1.67-6.23c0.5-4.41,0.2-8.83-0.89-13.15c-0.05-0.19-0.08-0.39-0.1-0.59
			c-0.33-3.67-0.16-10.89,4.63-17.98c4.52-6.68,10.17-9.64,13.2-11.23c0.46-0.24,0.85-0.44,1.16-0.63c0.14-0.08,0.29-0.16,0.44-0.22
			c3.74-1.62,7.49-2.85,13.63-3.57c10.73-1.25,19.07,3.1,23.1,5.81c0.05,0.03,0.1,0.07,0.15,0.1c2.06,1.53,3.53,3.03,4.83,4.36
			c1.46,1.49,2.73,2.78,4.73,4.13c4.39,2.95,9.24,5.11,14.42,6.4c0.18,0.04,0.35,0.1,0.52,0.17c7.72,3.18,12.11,9.2,13.06,17.89
			c0.88,8.07-7.59,15.77-7.68,15.84c-1.61,1.33-4,1.11-5.34-0.51c-1.33-1.61-1.1-4,0.51-5.34c1.56-1.41,5.3-6.12,4.97-9.17
			c-0.63-5.79-3.23-9.48-8.17-11.6c-5.92-1.52-11.48-4.01-16.52-7.4c-2.65-1.78-4.38-3.55-5.91-5.11c-1.2-1.22-2.33-2.37-3.88-3.54
			c-3.18-2.13-9.67-5.48-17.91-4.52c-5.13,0.6-8.15,1.56-11.29,2.91c-0.36,0.21-0.8,0.44-1.3,0.7c-2.62,1.37-6.99,3.66-10.44,8.76
			c-3.46,5.12-3.55,10.46-3.38,12.78c1.25,5.11,1.59,10.34,1,15.55c-0.39,3.44-1.3,5.88-2.1,8.03c-0.55,1.48-1.03,2.76-1.34,4.31
			c0.02,6.59,5.12,11.14,9.44,13.81c1.63,1.01,7.11,1.08,8.94,0.79c1.48-0.48,3.17,0,4.17,1.3c1.27,1.66,0.96,4.04-0.7,5.31
			C270.89,387.41,268.48,387.79,265.73,387.79z M267.25,380.65C267.25,380.65,267.25,380.65,267.25,380.65
			C267.25,380.65,267.25,380.65,267.25,380.65z"/>
	</g>
	<g>
		<path class="st0" d="M357.04,370.03c-0.63,0-1.26-0.16-1.85-0.49c-8.08-4.53-16.11-3.17-16.19-3.16c-2.06,0.37-4.03-1.01-4.4-3.07
			c-0.37-2.06,1.01-4.03,3.07-4.4c0.44-0.08,10.81-1.84,21.23,4.01c1.83,1.02,2.48,3.33,1.45,5.16
			C359.66,369.33,358.37,370.03,357.04,370.03z"/>
	</g>
</g>
</svg>
