<svg xmlns="http://www.w3.org/2000/svg"  viewBox="0 0 55 50">
  <path fill-rule="evenodd" clip-rule="evenodd" d="M29.4436 0.212352C29.5817 0.170933 29.7288 0.170191 29.8673 0.210215L54.9684 7.46391C55.1382 7.51298 55.2852 7.62045 55.3835 7.76735L59.6504 14.1443C59.7828 14.3422 59.8134 14.5911 59.7328 14.8152C59.6523 15.0392 59.4701 15.2117 59.242 15.2799L54.8808 16.5847V31.7231C54.8808 32.0366 54.6859 32.317 54.392 32.4262L28.5777 42.0147C28.3967 42.082 28.1967 42.0768 28.0193 42.0003L5.80772 32.4117C5.53293 32.293 5.35497 32.0224 5.35497 31.7231V16.9325L0.506837 15.2709C0.280553 15.1933 0.104837 15.0125 0.0338208 14.784C-0.0371954 14.5556 0.00500745 14.307 0.147428 14.1148L4.87308 7.73789C4.96941 7.60789 5.1052 7.51254 5.26018 7.46605L29.4436 0.212352ZM6.85497 17.4466V31.23L27.5666 40.171V16.6696L22.9351 22.4344C22.7372 22.6808 22.4061 22.7766 22.1072 22.6742L6.85497 17.4466ZM29.0666 16.6696V40.233L53.3808 31.2016V17.0335L34.4977 22.6832C34.2054 22.7707 33.8892 22.6723 33.6981 22.4344L29.0666 16.6696ZM29.6424 14.9914L34.5513 21.1015L57.8387 14.1341L54.4274 9.03574L29.6424 14.9914ZM51.8278 8.11772L28.3303 13.764L18.3449 10.9859L8.17661 8.1573L29.663 1.71256L51.8278 8.11772ZM5.7713 9.04515L17.9428 12.431L27.0191 14.9561L22.0955 21.0845L1.96295 14.1843L5.7713 9.04515Z" fill="#323232"/>
</svg>