<svg xmlns="http://www.w3.org/2000/svg"  viewBox="0 0 61 55">
  <path fill-rule="evenodd" clip-rule="evenodd" d="M14.8108 16.8345L6.03728 19.466C5.8823 19.5125 5.74651 19.6079 5.65018 19.7379L0.924528 26.1148C0.782107 26.307 0.739904 26.5556 0.81092 26.784C0.881937 27.0125 1.05765 27.1933 1.28394 27.2709L6.13207 28.9325V43.7231C6.13207 44.0224 6.31003 44.293 6.58482 44.4117L28.7964 54.0003C28.9738 54.0768 29.1738 54.082 29.3548 54.0147L55.1691 44.4261C55.463 44.317 55.6579 44.0366 55.6579 43.7231V28.5847L60.0191 27.2799C60.2472 27.2117 60.4294 27.0392 60.5099 26.8152C60.5905 26.5911 60.5599 26.3422 60.4275 26.1443L56.1606 19.7673C56.0623 19.6204 55.9153 19.513 55.7455 19.4639L46.6933 16.848L46.0783 18.2317L52.6049 20.1177L29.1074 25.764L19.122 22.9859L8.95371 20.1573L15.5566 18.1768L14.8108 16.8345ZM7.10883 27.6816C7.11992 27.6851 7.1309 27.6889 7.14176 27.6929L22.8726 33.0845L27.7962 26.9561L18.7199 24.431L7.96309 21.4387L6.5484 21.0452L2.74005 26.1843L7.10883 27.6816ZM7.63207 43.23V29.4466L22.8843 34.6742C23.1832 34.7766 23.5143 34.6808 23.7122 34.4344L28.3437 28.6696V52.171L7.63207 43.23ZM29.8437 52.233V28.6696L34.4752 34.4344C34.6663 34.6723 34.9825 34.7707 35.2748 34.6832L54.1579 29.0335V43.2016L29.8437 52.233ZM35.3284 33.1015L30.4195 26.9914L55.2045 21.0357L58.6158 26.1341L35.3284 33.1015Z" fill="#323232"/>
  <path fill-rule="evenodd" clip-rule="evenodd" d="M33.7808 2.55904C31.9401 1.73884 29.8835 1.53565 27.9178 1.97977C25.9521 2.42389 24.1827 3.49153 22.8733 5.02345C21.564 6.55537 20.7849 8.4695 20.6523 10.4804C20.5197 12.4912 21.0407 14.4911 22.1376 16.1817C23.2344 17.8722 24.8484 19.163 26.7387 19.8614C28.629 20.5597 30.6945 20.6284 32.627 20.057C34.5596 19.4856 36.2556 18.3048 37.4622 16.6907C38.6689 15.0767 39.3214 13.1158 39.3226 11.1006V10.1723C39.3226 9.75804 39.6584 9.42226 40.0726 9.42226C40.4868 9.42226 40.8226 9.75804 40.8226 10.1723V11.101L40.8226 11.1014C40.8212 13.4401 40.0639 15.7157 38.6636 17.5889C37.2633 19.462 35.2951 20.8323 33.0523 21.4954C30.8096 22.1585 28.4126 22.0789 26.2189 21.2684C24.0251 20.4579 22.1521 18.96 20.8792 16.9981C19.6063 15.0361 19.0017 12.7153 19.1556 10.3817C19.3095 8.04804 20.2136 5.82668 21.7331 4.04887C23.2526 2.27106 25.306 1.03206 27.5872 0.516652C29.8684 0.00124651 32.2551 0.237052 34.3913 1.1889C34.7697 1.35748 34.9397 1.80087 34.7712 2.17922C34.6026 2.55757 34.1592 2.72763 33.7808 2.55904Z" fill="#323232"/>
  <path fill-rule="evenodd" clip-rule="evenodd" d="M40.6026 2.49423C40.8957 2.78698 40.8959 3.26185 40.6032 3.55489L30.5079 13.6602C30.3673 13.801 30.1765 13.8801 29.9775 13.8802C29.7785 13.8802 29.5877 13.8012 29.447 13.6605L26.4184 10.6319C26.1255 10.339 26.1255 9.86415 26.4184 9.57126C26.7113 9.27837 27.1862 9.27837 27.4791 9.57126L29.9771 12.0692L39.542 2.49476C39.8347 2.20172 40.3096 2.20148 40.6026 2.49423Z" fill="#323232"/>
</svg>