<svg xmlns="http://www.w3.org/2000/svg"  viewBox="0 0 51 45" width="51px" height="45px">
  <path d="M46.5841 44.848H4.41592C4.22636 44.848 4.04457 44.7732 3.91054 44.6402C3.7765 44.5071 3.7012 44.3267 3.7012 44.1385V19.5416C3.7012 19.3534 3.7765 19.1729 3.91054 19.0399C4.04457 18.9068 4.22636 18.8321 4.41592 18.8321C4.60547 18.8321 4.78726 18.9068 4.9213 19.0399C5.05533 19.1729 5.13063 19.3534 5.13063 19.5416V43.4291H45.8694V19.5416C45.8694 19.3534 45.9447 19.1729 46.0787 19.0399C46.2127 18.9068 46.3945 18.8321 46.5841 18.8321C46.7736 18.8321 46.9554 18.9068 47.0895 19.0399C47.2235 19.1729 47.2988 19.3534 47.2988 19.5416V44.1385C47.2988 44.3267 47.2235 44.5071 47.0895 44.6402C46.9554 44.7732 46.7736 44.848 46.5841 44.848Z" fill="#323232"/>
  <path d="M49.8003 13.6318H1.1997C1.07958 13.6312 0.961547 13.6006 0.856498 13.5428C0.751449 13.485 0.662773 13.4018 0.598664 13.301C0.534555 13.2001 0.497081 13.0849 0.489703 12.9659C0.482326 12.8469 0.505283 12.7279 0.556453 12.6201L6.27417 0.559253C6.33169 0.437993 6.42263 0.335386 6.53648 0.263315C6.65032 0.191244 6.78239 0.152657 6.91741 0.152023H44.0826C44.2182 0.151986 44.3511 0.190257 44.4656 0.262367C44.5801 0.334477 44.6716 0.437448 44.7294 0.559253L50.4471 12.6201C50.4984 12.7282 50.5214 12.8475 50.5138 12.9668C50.5063 13.0861 50.4685 13.2015 50.4039 13.3025C50.3394 13.4034 50.2503 13.4865 50.1447 13.5441C50.0392 13.6016 49.9207 13.6318 49.8003 13.6318ZM2.32609 12.2128H48.6739L43.6287 1.57094H7.37126L2.32609 12.2128Z" fill="#323232"/>
  <path d="M45.75 20.339C44.4868 20.3375 43.2757 19.8386 42.3826 18.9519C41.4894 18.0652 40.9871 16.863 40.9857 15.609V12.9223C40.9857 12.7341 41.061 12.5537 41.1951 12.4206C41.3291 12.2876 41.5109 12.2128 41.7004 12.2128H49.8003C49.9899 12.2128 50.1717 12.2876 50.3057 12.4206C50.4397 12.5537 50.515 12.7341 50.515 12.9223V15.609C50.5135 16.863 50.011 18.0652 49.1177 18.952C48.2244 19.8387 47.0133 20.3375 45.75 20.339ZM42.4152 13.6318V15.609C42.4087 16.0479 42.4902 16.4836 42.6549 16.8909C42.8196 17.2982 43.0642 17.6689 43.3746 17.9816C43.6849 18.2942 44.0548 18.5424 44.4626 18.7118C44.8705 18.8813 45.3082 18.9685 45.7504 18.9685C46.1925 18.9685 46.6303 18.8813 47.0381 18.7118C47.446 18.5424 47.8158 18.2942 48.1262 17.9816C48.4365 17.6689 48.6812 17.2982 48.8459 16.8909C49.0106 16.4836 49.0921 16.0479 49.0856 15.609V13.6318H42.4152Z" fill="#323232"/>
  <path d="M37.6501 20.339C36.3869 20.3375 35.1757 19.8387 34.2825 18.952C33.3892 18.0652 32.8867 16.863 32.8851 15.609V12.9223C32.8851 12.7341 32.9604 12.5537 33.0945 12.4206C33.2285 12.2876 33.4103 12.2128 33.5999 12.2128H41.7004C41.89 12.2128 42.0718 12.2876 42.2058 12.4206C42.3399 12.5537 42.4152 12.7341 42.4152 12.9223V15.609C42.4136 16.863 41.9111 18.0652 41.0178 18.952C40.1246 19.8387 38.9134 20.3375 37.6501 20.339ZM34.3146 13.6318V15.609C34.3146 16.4872 34.666 17.3293 35.2915 17.9503C35.9171 18.5712 36.7655 18.9201 37.6501 18.9201C38.5348 18.9201 39.3832 18.5712 40.0088 17.9503C40.6343 17.3293 40.9857 16.4872 40.9857 15.609V13.6318H34.3146Z" fill="#323232"/>
  <path d="M29.5503 20.339C28.287 20.3375 27.0759 19.8387 26.1826 18.952C25.2893 18.0652 24.7868 16.863 24.7853 15.609V12.9223C24.7853 12.7341 24.8606 12.5537 24.9946 12.4206C25.1287 12.2876 25.3105 12.2128 25.5 12.2128H33.5999C33.7894 12.2128 33.9712 12.2876 34.1053 12.4206C34.2393 12.5537 34.3146 12.7341 34.3146 12.9223V15.609C34.3133 16.863 33.8109 18.0652 32.9177 18.9519C32.0246 19.8386 30.8135 20.3375 29.5503 20.339ZM26.2147 13.6318V15.609C26.2083 16.0479 26.2897 16.4836 26.4544 16.8909C26.6192 17.2982 26.8638 17.6689 27.1741 17.9816C27.4845 18.2942 27.8543 18.5424 28.2622 18.7118C28.6701 18.8813 29.1078 18.9685 29.5499 18.9685C29.9921 18.9685 30.4298 18.8813 30.8377 18.7118C31.2455 18.5424 31.6154 18.2942 31.9258 17.9816C32.2361 17.6689 32.4807 17.2982 32.6454 16.8909C32.8101 16.4836 32.8916 16.0479 32.8852 15.609V13.6318H26.2147Z" fill="#323232"/>
  <path d="M21.4497 20.339C20.1865 20.3375 18.9754 19.8386 18.0823 18.9519C17.1891 18.0652 16.6868 16.863 16.6854 15.609V12.9223C16.6854 12.7341 16.7607 12.5537 16.8948 12.4206C17.0288 12.2876 17.2106 12.2128 17.4001 12.2128H25.5C25.6896 12.2128 25.8714 12.2876 26.0054 12.4206C26.1394 12.5537 26.2147 12.7341 26.2147 12.9223V15.609C26.2132 16.863 25.7107 18.0652 24.8174 18.952C23.9241 19.8387 22.713 20.3375 21.4497 20.339V20.339ZM18.1149 13.6318V15.609C18.1084 16.0479 18.1899 16.4836 18.3546 16.8909C18.5193 17.2982 18.7639 17.6689 19.0743 17.9816C19.3846 18.2942 19.7545 18.5424 20.1623 18.7118C20.5702 18.8813 21.0079 18.9685 21.4501 18.9685C21.8922 18.9685 22.33 18.8813 22.7378 18.7118C23.1457 18.5424 23.5155 18.2942 23.8259 17.9816C24.1362 17.6689 24.3809 17.2982 24.5456 16.8909C24.7103 16.4836 24.7918 16.0479 24.7853 15.609V13.6318H18.1149Z" fill="#323232"/>
  <path d="M13.3499 20.339C12.0866 20.3375 10.8754 19.8387 9.98216 18.952C9.08887 18.0652 8.58636 16.863 8.58485 15.609V12.9223C8.58485 12.7341 8.66015 12.5537 8.79419 12.4206C8.92822 12.2876 9.11001 12.2128 9.29956 12.2128H17.4001C17.5897 12.2128 17.7715 12.2876 17.9055 12.4206C18.0396 12.5537 18.1149 12.7341 18.1149 12.9223V15.609C18.1133 16.863 17.6108 18.0652 16.7175 18.952C15.8243 19.8387 14.6131 20.3375 13.3499 20.339ZM10.0143 13.6318V15.609C10.0143 16.4872 10.3657 17.3293 10.9912 17.9503C11.6168 18.5712 12.4652 18.9201 13.3499 18.9201C14.2345 18.9201 15.0829 18.5712 15.7085 17.9503C16.334 17.3293 16.6854 16.4872 16.6854 15.609V13.6318H10.0143Z" fill="#323232"/>
  <path d="M5.24999 20.339C3.9867 20.3375 2.77558 19.8387 1.88229 18.952C0.98901 18.0652 0.486499 16.863 0.484985 15.609V12.9223C0.484985 12.7341 0.560285 12.5537 0.69432 12.4206C0.828355 12.2876 1.01015 12.2128 1.1997 12.2128H9.29956C9.48912 12.2128 9.67091 12.2876 9.80494 12.4206C9.93898 12.5537 10.0143 12.7341 10.0143 12.9223V15.609C10.013 16.863 9.5106 18.0652 8.61743 18.9519C7.72426 19.8386 6.51322 20.3375 5.24999 20.339ZM1.91441 13.6318V15.609C1.90794 16.0479 1.98943 16.4836 2.15413 16.8909C2.31884 17.2982 2.56348 17.6689 2.87382 17.9816C3.18417 18.2942 3.55403 18.5424 3.96189 18.7118C4.36976 18.8813 4.80749 18.9685 5.24963 18.9685C5.69177 18.9685 6.1295 18.8813 6.53737 18.7118C6.94523 18.5424 7.31509 18.2942 7.62544 17.9816C7.93578 17.6689 8.18042 17.2982 8.34513 16.8909C8.50983 16.4836 8.59132 16.0479 8.58485 15.609V13.6318H1.91441Z" fill="#323232"/>
  <path d="M45.4638 33.9894H5.53619C5.08873 33.9894 4.6596 33.9137 4.3432 33.779C4.02681 33.6444 3.84906 33.4617 3.84906 33.2713C3.84906 33.0808 4.02681 32.8982 4.3432 32.7635C4.6596 32.6288 5.08873 32.5532 5.53619 32.5532H45.4638C45.9113 32.5532 46.3404 32.6288 46.6568 32.7635C46.9732 32.8982 47.1509 33.0808 47.1509 33.2713C47.1509 33.4617 46.9732 33.6444 46.6568 33.779C46.3404 33.9137 45.9113 33.9894 45.4638 33.9894Z" fill="#323232"/>
  <path d="M41.7019 13.6318C41.5399 13.6316 41.3828 13.5768 41.2564 13.4763C41.1299 13.3759 41.0415 13.2359 41.0057 13.0791L38.2469 1.01828C38.2099 0.836643 38.2459 0.647827 38.3473 0.492211C38.4487 0.336596 38.6074 0.226535 38.7894 0.185569C38.9715 0.144602 39.1625 0.175981 39.3216 0.272994C39.4807 0.370008 39.5952 0.524955 39.6406 0.704697L42.3994 12.7655C42.4231 12.8694 42.423 12.9773 42.399 13.0811C42.3749 13.1849 42.3277 13.2821 42.2607 13.3653C42.1936 13.4485 42.1086 13.5157 42.0119 13.5618C41.9151 13.6079 41.8092 13.6318 41.7019 13.6318V13.6318Z" fill="#323232"/>
  <path d="M33.4469 13.6318C33.2792 13.6315 33.117 13.5727 32.9886 13.4657C32.8601 13.3587 32.7737 13.2103 32.7443 13.0465L30.578 0.985643C30.5473 0.801424 30.5909 0.612591 30.6995 0.460102C30.8081 0.307614 30.9728 0.203766 31.1581 0.171086C31.3433 0.138405 31.534 0.179526 31.6889 0.28553C31.8437 0.391534 31.9503 0.553872 31.9853 0.737332L34.1509 12.7981C34.184 12.9833 34.1416 13.1739 34.0332 13.3281C33.9248 13.4822 33.7592 13.5874 33.5727 13.6204C33.5312 13.628 33.4891 13.6318 33.4469 13.6318Z" fill="#323232"/>
  <path d="M9.29813 13.6318C9.19081 13.6318 9.08485 13.6079 8.98811 13.5618C8.89137 13.5157 8.80634 13.4485 8.73934 13.3653C8.67233 13.2821 8.62505 13.1849 8.60103 13.0811C8.57701 12.9773 8.57685 12.8694 8.60057 12.7655L11.3594 0.704697C11.3783 0.612031 11.4156 0.524049 11.4693 0.445924C11.5229 0.367798 11.5918 0.301104 11.6717 0.249761C11.7517 0.198418 11.8412 0.163462 11.935 0.146947C12.0288 0.130432 12.125 0.132691 12.2179 0.153591C12.3107 0.174492 12.3985 0.213612 12.4759 0.268654C12.5534 0.323695 12.619 0.393547 12.6688 0.474104C12.7187 0.554661 12.7518 0.644299 12.7663 0.737749C12.7808 0.8312 12.7763 0.926578 12.7531 1.01828L9.99426 13.0791C9.95847 13.2359 9.8701 13.3759 9.74363 13.4764C9.61716 13.5768 9.46008 13.6316 9.29813 13.6318Z" fill="#323232"/>
  <path d="M17.5531 13.6318C17.5109 13.6318 17.4688 13.628 17.4273 13.6204C17.2408 13.5874 17.0752 13.4822 16.9668 13.3281C16.8584 13.1739 16.816 12.9833 16.8491 12.7981L19.0147 0.737332C19.0498 0.553872 19.1563 0.391534 19.3111 0.28553C19.466 0.179526 19.6567 0.138405 19.842 0.171086C20.0272 0.203766 20.1919 0.307614 20.3005 0.460102C20.4091 0.612591 20.4527 0.801424 20.422 0.985643L18.2557 13.0465C18.2263 13.2103 18.1399 13.3587 18.0114 13.4657C17.883 13.5727 17.7208 13.6315 17.5531 13.6318V13.6318Z" fill="#323232"/>
  <path d="M25.5 13.6318C25.3105 13.6318 25.1287 13.557 24.9946 13.424C24.8606 13.2909 24.7853 13.1105 24.7853 12.9223V0.861483C24.7853 0.673323 24.8606 0.492869 24.9946 0.359819C25.1287 0.22677 25.3105 0.152023 25.5 0.152023C25.6896 0.152023 25.8714 0.22677 26.0054 0.359819C26.1394 0.492869 26.2147 0.673323 26.2147 0.861483V12.9223C26.2147 13.1105 26.1394 13.2909 26.0054 13.424C25.8714 13.557 25.6896 13.6318 25.5 13.6318Z" fill="#323232"/>
</svg>